<svg xmlns="http://www.w3.org/2000/svg" xmlns:xlink="http://www.w3.org/1999/xlink" xmlns:lucid="lucid" width="1364.12" height="780"><g transform="translate(-174.21604938271605 -60)" lucid:page-tab-id="0_0"><path d="M250 180c-27.6 0-50-22.4-50-50s22.4-50 50-50 50 22.4 50 50-22.4 50-50 50z" stroke="#5e5e5e" stroke-width="3" fill="#fff"/><path d="M200 180h100" stroke="#5e5e5e" stroke-width="3" fill="none"/><use xlink:href="#a" transform="matrix(1,0,0,1,160,180) translate(35.216049382716044 17.77777777777778)"/><path d="M750 180c-27.6 0-50-22.4-50-50s22.4-50 50-50 50 22.4 50 50-22.4 50-50 50z" stroke="#5e5e5e" stroke-width="3" fill="#fff"/><path d="M700 180h100" stroke="#5e5e5e" stroke-width="3" fill="none"/><use xlink:href="#b" transform="matrix(1,0,0,1,660,180) translate(33.88888888888888 17.77777777777778)"/><path d="M1320 188c0 6.63-26.86 12-60 12s-60-5.37-60-12V92c0-6.63 26.86-12 60-12s60 5.37 60 12z" stroke="#5e5e5e" stroke-width="3" fill="#fff"/><path d="M1320 92c0 6.63-26.86 12-60 12s-60-5.37-60-12" stroke="#5e5e5e" stroke-width="3" fill="none"/><use xlink:href="#c" transform="matrix(1,0,0,1,1205,109) translate(27.839506172839506 33.90277777777778)"/><use xlink:href="#d" transform="matrix(1,0,0,1,1205,109) translate(9.320987654320987 60.56944444444445)"/><path d="M250 200.75a.75.75 0 0 1 .75.75v617a.75.75 0 0 1-.75.75.75.75 0 0 1-.75-.75v-617a.75.75 0 0 1 .75-.75zM750 200.75a.75.75 0 0 1 .75.75v617a.75.75 0 0 1-.75.75.75.75 0 0 1-.75-.75v-617a.75.75 0 0 1 .75-.75zM1260 200.75a.75.75 0 0 1 .75.75v617a.75.75 0 0 1-.75.75.75.75 0 0 1-.75-.75v-617a.75.75 0 0 1 .75-.75z" stroke="#5e5e5e" stroke-width="1.5" fill="none"/><path d="M280 220a6 6 0 0 1 6-6h408a6 6 0 0 1 6 6v94a6 6 0 0 1-6 6H286a6 6 0 0 1-6-6z" stroke="#000" stroke-opacity="0" stroke-width="3" fill="#fff" fill-opacity="0"/><use xlink:href="#e" transform="matrix(1,0,0,1,285,219.00000000000006) translate(-3.552713678800501e-15 55.444444444444436)"/><use xlink:href="#f" transform="matrix(1,0,0,1,285,219.00000000000006) translate(35.3185185185185 55.444444444444436)"/><use xlink:href="#g" transform="matrix(1,0,0,1,285,219.00000000000006) translate(155.61481481481474 55.444444444444436)"/><use xlink:href="#h" transform="matrix(1,0,0,1,285,219.00000000000006) translate(297.63950617283933 55.444444444444436)"/><path d="M270 300c0 11.05-8.95 20-20 20s-20-8.95-20-20 8.95-20 20-20 20 8.95 20 20z" stroke="#5e5e5e" stroke-width="3"/><path d="M272.5 300H730" stroke="#5e5e5e" stroke-width="2" fill="none"/><path d="M272.53 301h-1.14l.1-.93-.03-1.07h1.06" fill="#5e5e5e"/><path d="M745.26 300L731 304.64v-9.28z" stroke="#5e5e5e" stroke-width="2" fill="#5e5e5e"/><path d="M315 320h354l16 16v64H315z" stroke="#5e5e5e" stroke-width="3" fill="#fff"/><path d="M669 321.43V336h14.57" stroke="#5e5e5e" stroke-width="3" fill="#fff"/><use xlink:href="#i" transform="matrix(1,0,0,1,320,325) translate(0 22.968749999999993)"/><use xlink:href="#j" transform="matrix(1,0,0,1,320,325) translate(53.342013888888864 22.968749999999993)"/><use xlink:href="#k" transform="matrix(1,0,0,1,320,325) translate(0 40.746527777777764)"/><use xlink:href="#l" transform="matrix(1,0,0,1,320,325) translate(0 58.524305555555536)"/><use xlink:href="#m" transform="matrix(1,0,0,1,320,325) translate(160.0260416666666 58.524305555555536)"/><use xlink:href="#n" transform="matrix(1,0,0,1,320,325) translate(234.70486111111103 58.524305555555536)"/><path d="M780 314.33a6 6 0 0 1 6-6h268a6 6 0 0 1 6 6v51.34a6 6 0 0 1-6 6H786a6 6 0 0 1-6-6z" stroke="#000" stroke-opacity="0" stroke-width="3" fill="#fff" fill-opacity="0"/><use xlink:href="#o" transform="matrix(1,0,0,1,785,313.33333333333337) translate(0 31.27777777777778)"/><use xlink:href="#p" transform="matrix(1,0,0,1,785,313.33333333333337) translate(24.691358024691358 31.27777777777778)"/><use xlink:href="#q" transform="matrix(1,0,0,1,785,313.33333333333337) translate(91.29629629629629 31.27777777777778)"/><use xlink:href="#r" transform="matrix(1,0,0,1,785,313.33333333333337) translate(150.37037037037038 31.27777777777778)"/><path d="M780 396.5a6 6 0 0 1 6-6h348a6 6 0 0 1 6 6v83.33a6 6 0 0 1-6 6H786a6 6 0 0 1-6-6z" stroke="#000" stroke-opacity="0" stroke-width="3" fill="#fff" fill-opacity="0"/><use xlink:href="#s" transform="matrix(1,0,0,1,785,395.49999999999983) translate(0 35.72222222222222)"/><use xlink:href="#t" transform="matrix(1,0,0,1,785,395.49999999999983) translate(30.5679012345679 35.72222222222222)"/><use xlink:href="#u" transform="matrix(1,0,0,1,785,395.49999999999983) translate(88.74074074074073 35.72222222222222)"/><use xlink:href="#v" transform="matrix(1,0,0,1,785,395.49999999999983) translate(131.16049382716048 35.72222222222222)"/><use xlink:href="#w" transform="matrix(1,0,0,1,785,395.49999999999983) translate(0 57.05555555555555)"/><use xlink:href="#x" transform="matrix(1,0,0,1,785,395.49999999999983) translate(152.69135802469134 57.05555555555555)"/><use xlink:href="#y" transform="matrix(1,0,0,1,785,395.49999999999983) translate(311.2098765432098 57.05555555555555)"/><path d="M770 340c0 11.05-8.95 20-20 20s-20-8.95-20-20 8.95-20 20-20 20 8.95 20 20zM770 460c0 11.05-8.95 20-20 20s-20-8.95-20-20 8.95-20 20-20 20 8.95 20 20z" stroke="#5e5e5e" stroke-width="3"/><path d="M772.5 460H1240" stroke="#5e5e5e" stroke-width="2" fill="none"/><path d="M772.53 461h-1.14l.1-.93-.03-1.07h1.06" fill="#5e5e5e"/><path d="M1255.27 460l-14.27 4.64v-9.28z" stroke="#5e5e5e" stroke-width="2" fill="#5e5e5e"/><path d="M780 546a6 6 0 0 1 6-6h328a6 6 0 0 1 6 6v78a6 6 0 0 1-6 6H786a6 6 0 0 1-6-6z" stroke="#000" stroke-opacity="0" stroke-width="3" fill="#fff" fill-opacity="0"/><use xlink:href="#z" transform="matrix(1,0,0,1,785,545) translate(0 45.27777777777778)"/><use xlink:href="#A" transform="matrix(1,0,0,1,785,545) translate(24.691358024691358 45.27777777777778)"/><use xlink:href="#B" transform="matrix(1,0,0,1,785,545) translate(105.92592592592591 45.27777777777778)"/><path d="M770 602.92c0 11.04-8.95 20-20 20s-20-8.96-20-20c0-11.05 8.95-20 20-20s20 8.95 20 20z" stroke="#5e5e5e" stroke-width="3"/><path d="M727.5 716.46H270" stroke="#5e5e5e" stroke-width="2" fill="none"/><path d="M728.5 716.4l.03 1.06h-1.06v-2h1.14" fill="#5e5e5e"/><path d="M254.74 716.46l14.26-4.64v9.27z" stroke="#5e5e5e" stroke-width="2" fill="#5e5e5e"/><path d="M340 677.46a6 6 0 0 1 6-6h308a6 6 0 0 1 6 6v51.33a6 6 0 0 1-6 6H346a6 6 0 0 1-6-6z" stroke="#000" stroke-opacity="0" stroke-width="3" fill="#fff" fill-opacity="0"/><use xlink:href="#C" transform="matrix(1,0,0,1,345,676.4583333333333) translate(0 31.27777777777778)"/><use xlink:href="#D" transform="matrix(1,0,0,1,345,676.4583333333333) translate(24.691358024691358 31.27777777777778)"/><use xlink:href="#E" transform="matrix(1,0,0,1,345,676.4583333333333) translate(85.06172839506173 31.27777777777778)"/><use xlink:href="#F" transform="matrix(1,0,0,1,345,676.4583333333333) translate(198.45679012345676 31.27777777777778)"/><path d="M320 734.8h344l16 16v64H320z" stroke="#5e5e5e" stroke-width="3" fill="#fff"/><path d="M664 736.22v14.57h14.57" stroke="#5e5e5e" stroke-width="3" fill="#fff"/><use xlink:href="#G" transform="matrix(1,0,0,1,325,739.7916666666666) translate(0 22.96875)"/><use xlink:href="#H" transform="matrix(1,0,0,1,325,739.7916666666666) translate(149.35763888888883 22.96875)"/><use xlink:href="#I" transform="matrix(1,0,0,1,325,739.7916666666666) translate(0 40.74652777777777)"/><use xlink:href="#J" transform="matrix(1,0,0,1,325,739.7916666666666) translate(0 58.52430555555555)"/><path d="M780 491.83a6 6 0 0 1 6-6h368a6 6 0 0 1 6 6v51.34a6 6 0 0 1-6 6H786a6 6 0 0 1-6-6z" stroke="#000" stroke-opacity="0" stroke-width="3" fill="#fff" fill-opacity="0"/><use xlink:href="#K" transform="matrix(1,0,0,1,785,490.8333333333332) translate(0 17.77777777777778)"/><use xlink:href="#L" transform="matrix(1,0,0,1,785,490.8333333333332) translate(37.03703703703704 17.77777777777778)"/><use xlink:href="#M" transform="matrix(1,0,0,1,785,490.8333333333332) translate(113.45679012345678 17.77777777777778)"/><use xlink:href="#N" transform="matrix(1,0,0,1,785,490.8333333333332) translate(178.7037037037037 17.77777777777778)"/><use xlink:href="#O" transform="matrix(1,0,0,1,785,490.8333333333332) translate(315.55555555555554 17.77777777777778)"/><use xlink:href="#P" transform="matrix(1,0,0,1,785,490.8333333333332) translate(0 44.44444444444444)"/><use xlink:href="#Q" transform="matrix(1,0,0,1,785,490.8333333333332) translate(44.382716049382715 44.44444444444444)"/><use xlink:href="#R" transform="matrix(1,0,0,1,785,490.8333333333332) translate(103.45679012345678 44.44444444444444)"/><use xlink:href="#S" transform="matrix(1,0,0,1,785,490.8333333333332) translate(151.60493827160494 44.44444444444444)"/><use xlink:href="#T" transform="matrix(1,0,0,1,785,490.8333333333332) translate(192.1604938271605 44.44444444444444)"/><use xlink:href="#U" transform="matrix(1,0,0,1,785,490.8333333333332) translate(245.06172839506175 44.44444444444444)"/><path d="M727.5 520H270" stroke="#5e5e5e" stroke-width="2" fill="none"/><path d="M728.5 519.93l.03 1.07h-1.06v-2h1.14" fill="#5e5e5e"/><path d="M254.73 520l14.27-4.64v9.28z" stroke="#5e5e5e" stroke-width="2" fill="#5e5e5e"/><path d="M340 466a6 6 0 0 1 6-6h308a6 6 0 0 1 6 6v51.33a6 6 0 0 1-6 6H346a6 6 0 0 1-6-6z" stroke="#000" stroke-opacity="0" stroke-width="3" fill="#fff" fill-opacity="0"/><g><use xlink:href="#V" transform="matrix(1,0,0,1,345,465) translate(0 31.27777777777778)"/><use xlink:href="#W" transform="matrix(1,0,0,1,345,465) translate(38.20987654320988 31.27777777777778)"/><use xlink:href="#X" transform="matrix(1,0,0,1,345,465) translate(98.58024691358025 31.27777777777778)"/><use xlink:href="#Y" transform="matrix(1,0,0,1,345,465) translate(184.81481481481484 31.27777777777778)"/></g><path d="M395 540h178l12 12v48H395z" stroke="#5e5e5e" stroke-width="3" fill="#fff"/><path d="M573 541.43V552h10.57" stroke="#5e5e5e" stroke-width="3" fill="#fff"/><g><use xlink:href="#Z" transform="matrix(1,0,0,1,400,545) translate(19.90740740740742 30.27777777777778)"/><use xlink:href="#aa" transform="matrix(1,0,0,1,400,545) translate(99.29012345679013 30.27777777777778)"/></g><path d="M780 612.46a6 6 0 0 1 6-6h328a6 6 0 0 1 6 6v78a6 6 0 0 1-6 6H786a6 6 0 0 1-6-6z" stroke="#000" stroke-opacity="0" stroke-width="3" fill="#fff" fill-opacity="0"/><g><use xlink:href="#ab" transform="matrix(1,0,0,1,785,611.4583333333333) translate(0 45.27777777777778)"/><use xlink:href="#ac" transform="matrix(1,0,0,1,785,611.4583333333333) translate(24.691358024691358 45.27777777777778)"/><use xlink:href="#ad" transform="matrix(1,0,0,1,785,611.4583333333333) translate(99.87654320987653 45.27777777777778)"/><use xlink:href="#ae" transform="matrix(1,0,0,1,785,611.4583333333333) translate(149.19753086419752 45.27777777777778)"/><use xlink:href="#af" transform="matrix(1,0,0,1,785,611.4583333333333) translate(237.96296296296293 45.27777777777778)"/></g><path d="M772.5 602.92H1240" stroke="#5e5e5e" stroke-width="2" fill="none"/><path d="M772.53 603.92h-1.14l.1-.94-.03-1.06h1.06" fill="#5e5e5e"/><path d="M1255.27 602.92l-14.27 4.63v-9.27z" stroke="#5e5e5e" stroke-width="2" fill="#5e5e5e"/><path d="M1480 188c0 6.63-26.86 12-60 12s-60-5.37-60-12V92c0-6.63 26.86-12 60-12s60 5.37 60 12z" stroke="#5e5e5e" stroke-width="3" fill="#fff"/><path d="M1480 92c0 6.63-26.86 12-60 12s-60-5.37-60-12" stroke="#5e5e5e" stroke-width="3" fill="none"/><g><use xlink:href="#ag" transform="matrix(1,0,0,1,1365,109) translate(33.425925925925924 33.90277777777778)"/><use xlink:href="#d" transform="matrix(1,0,0,1,1365,109) translate(9.320987654320987 60.56944444444445)"/></g><g><path d="M1421.5 200.75a.75.75 0 0 1 .75.75v617a.75.75 0 0 1-.75.75.75.75 0 0 1-.75-.75v-617a.75.75 0 0 1 .75-.75z" stroke="#5e5e5e" stroke-width="1.5" fill="none"/></g><path d="M780 354.33a6 6 0 0 1 6-6h608a6 6 0 0 1 6 6V394a6 6 0 0 1-6 6H786a6 6 0 0 1-6-6z" stroke="#000" stroke-opacity="0" stroke-width="3" fill="#fff" fill-opacity="0"/><g><use xlink:href="#ah" transform="matrix(1,0,0,1,785,353.33333333333337) translate(0 24.72222222222222)"/><use xlink:href="#t" transform="matrix(1,0,0,1,785,353.33333333333337) translate(29.629629629629626 24.72222222222222)"/><use xlink:href="#ai" transform="matrix(1,0,0,1,785,353.33333333333337) translate(87.80246913580247 24.72222222222222)"/><use xlink:href="#aj" transform="matrix(1,0,0,1,785,353.33333333333337) translate(281.72839506172835 24.72222222222222)"/><use xlink:href="#ak" transform="matrix(1,0,0,1,785,353.33333333333337) translate(318.1728395061728 24.72222222222222)"/></g><path d="M770 391.67c0 11.04-8.95 20-20 20s-20-8.96-20-20c0-11.05 8.95-20 20-20s20 8.95 20 20z" stroke="#5e5e5e" stroke-width="3"/><path d="M772.5 391.67H1240" stroke="#5e5e5e" stroke-width="2" fill="none"/><path d="M772.53 392.67h-1.14l.1-.94-.03-1.06h1.06" fill="#5e5e5e"/><path d="M1255.27 391.67L1241 396.3v-9.27z" stroke="#5e5e5e" stroke-width="2" fill="#5e5e5e"/><path d="M770 651.46c0 11.04-8.95 20-20 20s-20-8.96-20-20c0-11.05 8.95-20 20-20s20 8.95 20 20z" stroke="#5e5e5e" stroke-width="3"/><path d="M770 520c0 11.05-8.95 20-20 20s-20-8.95-20-20 8.95-20 20-20 20 8.95 20 20z" stroke="#c92d39" stroke-width="3" fill="#fff"/><path d="M762 520c0 6.63-5.37 12-12 12s-12-5.37-12-12 5.37-12 12-12 12 5.37 12 12z" stroke="#c92d39" stroke-width="3"/><path d="M770 716.46c0 11.04-8.95 20-20 20s-20-8.96-20-20c0-11.05 8.95-20 20-20s20 8.95 20 20z" stroke="#7ab648" stroke-width="3" fill="#fff"/><path d="M762 716.46c0 6.63-5.37 12-12 12s-12-5.37-12-12 5.37-12 12-12 12 5.37 12 12z" stroke="#7ab648" stroke-width="3"/><path d="M1441.5 434c0 11.05-8.95 20-20 20s-20-8.95-20-20 8.95-20 20-20 20 8.95 20 20z" stroke="#5e5e5e" stroke-width="3"/><path d="M1399 434h-119" stroke="#5e5e5e" stroke-width="2" fill="none"/><path d="M1400 433.93l.03 1.07h-1.06v-2h1.14" fill="#5e5e5e"/><path d="M1264.73 434l14.27-4.64v9.28z" stroke="#5e5e5e" stroke-width="2" fill="#5e5e5e"/><g><path d="M1512.33 360a6 6 0 0 1 6 6v348a6 6 0 0 1-6 6H1429a6 6 0 0 1-6-6V366a6 6 0 0 1 6-6z" stroke="#000" stroke-opacity="0" stroke-width="3" fill="#fff" fill-opacity="0"/></g><g><use xlink:href="#al" transform="matrix(6.123233995736766e-17,1,-1,6.123233995736766e-17,1513.3333333333335,365) translate(0 35.72222222222222)"/><use xlink:href="#am" transform="matrix(6.123233995736766e-17,1,-1,6.123233995736766e-17,1513.3333333333335,365) translate(47.35802469135802 35.72222222222222)"/><use xlink:href="#an" transform="matrix(6.123233995736766e-17,1,-1,6.123233995736766e-17,1513.3333333333335,365) translate(89.77777777777777 35.72222222222222)"/><use xlink:href="#ao" transform="matrix(6.123233995736766e-17,1,-1,6.123233995736766e-17,1513.3333333333335,365) translate(0 57.05555555555555)"/><use xlink:href="#x" transform="matrix(6.123233995736766e-17,1,-1,6.123233995736766e-17,1513.3333333333335,365) translate(152.69135802469134 57.05555555555555)"/><use xlink:href="#y" transform="matrix(6.123233995736766e-17,1,-1,6.123233995736766e-17,1513.3333333333335,365) translate(311.2098765432098 57.05555555555555)"/></g><defs><path fill="#333" d="M232-93c-1 65-40 97-104 97C67 4 28-28 28-90v-158h33c8 89-33 224 67 224 102 0 64-133 71-224h33v155" id="ap"/><path fill="#333" d="M135-143c-3-34-86-38-87 0 15 53 115 12 119 90S17 21 10-45l28-5c4 36 97 45 98 0-10-56-113-15-118-90-4-57 82-63 122-42 12 7 21 19 24 35" id="aq"/><path fill="#333" d="M100-194c63 0 86 42 84 106H49c0 40 14 67 53 68 26 1 43-12 49-29l28 8c-11 28-37 45-77 45C44 4 14-33 15-96c1-61 26-98 85-98zm52 81c6-60-76-77-97-28-3 7-6 17-6 28h103" id="ar"/><path fill="#333" d="M114-163C36-179 61-72 57 0H25l-1-190h30c1 12-1 29 2 39 6-27 23-49 58-41v29" id="as"/><path fill="#333" d="M0 4l72-265h28L28 4H0" id="at"/><path fill="#333" d="M212-179c-10-28-35-45-73-45-59 0-87 40-87 99 0 60 29 101 89 101 43 0 62-24 78-52l27 14C228-24 195 4 139 4 59 4 22-46 18-125c-6-104 99-153 187-111 19 9 31 26 39 46" id="au"/><path fill="#333" d="M24 0v-261h32V0H24" id="av"/><path fill="#333" d="M24-231v-30h32v30H24zM24 0v-190h32V0H24" id="aw"/><path fill="#333" d="M117-194c89-4 53 116 60 194h-32v-121c0-31-8-49-39-48C34-167 62-67 57 0H25l-1-190h30c1 10-1 24 2 32 11-22 29-35 61-36" id="ax"/><path fill="#333" d="M59-47c-2 24 18 29 38 22v24C64 9 27 4 27-40v-127H5v-23h24l9-43h21v43h35v23H59v120" id="ay"/><g id="a"><use transform="matrix(0.06172839506172839,0,0,0.06172839506172839,0,0)" xlink:href="#ap"/><use transform="matrix(0.06172839506172839,0,0,0.06172839506172839,15.987654320987653,0)" xlink:href="#aq"/><use transform="matrix(0.06172839506172839,0,0,0.06172839506172839,27.098765432098766,0)" xlink:href="#ar"/><use transform="matrix(0.06172839506172839,0,0,0.06172839506172839,39.44444444444444,0)" xlink:href="#as"/><use transform="matrix(0.06172839506172839,0,0,0.06172839506172839,46.79012345679012,0)" xlink:href="#at"/><use transform="matrix(0.06172839506172839,0,0,0.06172839506172839,52.96296296296296,0)" xlink:href="#au"/><use transform="matrix(0.06172839506172839,0,0,0.06172839506172839,68.95061728395062,0)" xlink:href="#av"/><use transform="matrix(0.06172839506172839,0,0,0.06172839506172839,73.82716049382717,0)" xlink:href="#aw"/><use transform="matrix(0.06172839506172839,0,0,0.06172839506172839,78.70370370370371,0)" xlink:href="#ar"/><use transform="matrix(0.06172839506172839,0,0,0.06172839506172839,91.0493827160494,0)" xlink:href="#ax"/><use transform="matrix(0.06172839506172839,0,0,0.06172839506172839,103.39506172839508,0)" xlink:href="#ay"/></g><path fill="#333" d="M85-194c31 0 48 13 60 33l-1-100h32l1 261h-30c-2-10 0-23-3-31C134-8 116 4 85 4 32 4 16-35 15-94c0-66 23-100 70-100zm9 24c-40 0-46 34-46 75 0 40 6 74 45 74 42 0 51-32 51-76 0-42-9-74-50-73" id="az"/><path fill="#333" d="M100-194c62-1 85 37 85 99 1 63-27 99-86 99S16-35 15-95c0-66 28-99 85-99zM99-20c44 1 53-31 53-75 0-43-8-75-51-75s-53 32-53 75 10 74 51 75" id="aA"/><path fill="#333" d="M143 0L79-87 56-68V0H24v-261h32v163l83-92h37l-77 82L181 0h-38" id="aB"/><path fill="#333" d="M115-194c55 1 70 41 70 98S169 2 115 4C84 4 66-9 55-30l1 105H24l-1-265h31l2 30c10-21 28-34 59-34zm-8 174c40 0 45-34 45-75s-6-73-45-74c-42 0-51 32-51 76 0 43 10 73 51 73" id="aC"/><g id="b"><use transform="matrix(0.06172839506172839,0,0,0.06172839506172839,0,0)" xlink:href="#az"/><use transform="matrix(0.06172839506172839,0,0,0.06172839506172839,12.345679012345679,0)" xlink:href="#aA"/><use transform="matrix(0.06172839506172839,0,0,0.06172839506172839,24.691358024691358,0)" xlink:href="#aA"/><use transform="matrix(0.06172839506172839,0,0,0.06172839506172839,37.03703703703704,0)" xlink:href="#as"/><use transform="matrix(0.06172839506172839,0,0,0.06172839506172839,44.382716049382715,0)" xlink:href="#aB"/><use transform="matrix(0.06172839506172839,0,0,0.06172839506172839,55.49382716049382,0)" xlink:href="#ar"/><use transform="matrix(0.06172839506172839,0,0,0.06172839506172839,67.8395061728395,0)" xlink:href="#ar"/><use transform="matrix(0.06172839506172839,0,0,0.06172839506172839,80.18518518518519,0)" xlink:href="#aC"/><use transform="matrix(0.06172839506172839,0,0,0.06172839506172839,92.53086419753087,0)" xlink:href="#ar"/><use transform="matrix(0.06172839506172839,0,0,0.06172839506172839,104.87654320987656,0)" xlink:href="#as"/></g><g id="c"><use transform="matrix(0.06172839506172839,0,0,0.06172839506172839,0,0)" xlink:href="#ay"/><use transform="matrix(0.06172839506172839,0,0,0.06172839506172839,6.172839506172839,0)" xlink:href="#aA"/><use transform="matrix(0.06172839506172839,0,0,0.06172839506172839,18.51851851851852,0)" xlink:href="#aB"/><use transform="matrix(0.06172839506172839,0,0,0.06172839506172839,29.62962962962963,0)" xlink:href="#ar"/><use transform="matrix(0.06172839506172839,0,0,0.06172839506172839,41.97530864197531,0)" xlink:href="#ax"/></g><path fill="#333" d="M141-36C126-15 110 5 73 4 37 3 15-17 15-53c-1-64 63-63 125-63 3-35-9-54-41-54-24 1-41 7-42 31l-33-3c5-37 33-52 76-52 45 0 72 20 72 64v82c-1 20 7 32 28 27v20c-31 9-61-2-59-35zM48-53c0 20 12 33 32 33 41-3 63-29 60-74-43 2-92-5-92 41" id="aD"/><path fill="#333" d="M115-194c53 0 69 39 70 98 0 66-23 100-70 100C84 3 66-7 56-30L54 0H23l1-261h32v101c10-23 28-34 59-34zm-8 174c40 0 45-34 45-75 0-40-5-75-45-74-42 0-51 32-51 76 0 43 10 73 51 73" id="aE"/><g id="d"><use transform="matrix(0.06172839506172839,0,0,0.06172839506172839,0,0)" xlink:href="#az"/><use transform="matrix(0.06172839506172839,0,0,0.06172839506172839,12.345679012345679,0)" xlink:href="#aD"/><use transform="matrix(0.06172839506172839,0,0,0.06172839506172839,24.691358024691358,0)" xlink:href="#ay"/><use transform="matrix(0.06172839506172839,0,0,0.06172839506172839,30.864197530864196,0)" xlink:href="#aD"/><use transform="matrix(0.06172839506172839,0,0,0.06172839506172839,43.20987654320987,0)" xlink:href="#aE"/><use transform="matrix(0.06172839506172839,0,0,0.06172839506172839,55.55555555555555,0)" xlink:href="#aD"/><use transform="matrix(0.06172839506172839,0,0,0.06172839506172839,67.90123456790123,0)" xlink:href="#aq"/><use transform="matrix(0.06172839506172839,0,0,0.06172839506172839,79.01234567901234,0)" xlink:href="#ar"/></g><path fill="#333" d="M23 0v-37h61v-169l-59 37v-38l62-41h46v211h57V0H23" id="aF"/><path fill="#333" d="M24 0v-54h51V0H24" id="aG"/><g id="e"><use transform="matrix(0.0987654320987654,0,0,0.0987654320987654,0,0)" xlink:href="#aF"/><use transform="matrix(0.0987654320987654,0,0,0.0987654320987654,19.753086419753078,0)" xlink:href="#aG"/></g><path fill="#333" d="M67-125c0 53 21 87 73 88 37 1 54-22 65-47l45 17C233-25 199 4 140 4 58 4 20-42 15-125 8-235 124-281 211-232c18 10 29 29 36 50l-46 12c-8-25-30-41-62-41-52 0-71 34-72 86" id="aH"/><path fill="#333" d="M135-150c-39-12-60 13-60 57V0H25l-1-190h47c2 13-1 29 3 40 6-28 27-53 61-41v41" id="aI"/><path fill="#333" d="M185-48c-13 30-37 53-82 52C43 2 14-33 14-96s30-98 90-98c62 0 83 45 84 108H66c0 31 8 55 39 56 18 0 30-7 34-22zm-45-69c5-46-57-63-70-21-2 6-4 13-4 21h74" id="aJ"/><path fill="#333" d="M133-34C117-15 103 5 69 4 32 3 11-16 11-54c-1-60 55-63 116-61 1-26-3-47-28-47-18 1-26 9-28 27l-52-2c7-38 36-58 82-57s74 22 75 68l1 82c-1 14 12 18 25 15v27c-30 8-71 5-69-32zm-48 3c29 0 43-24 42-57-32 0-66-3-65 30 0 17 8 27 23 27" id="aK"/><path fill="#333" d="M115-3C79 11 28 4 28-45v-112H4v-33h27l15-45h31v45h36v33H77v99c-1 23 16 31 38 25v30" id="aL"/><g id="f"><use transform="matrix(0.0987654320987654,0,0,0.0987654320987654,0,0)" xlink:href="#aH"/><use transform="matrix(0.0987654320987654,0,0,0.0987654320987654,25.58024691358024,0)" xlink:href="#aI"/><use transform="matrix(0.0987654320987654,0,0,0.0987654320987654,39.4074074074074,0)" xlink:href="#aJ"/><use transform="matrix(0.0987654320987654,0,0,0.0987654320987654,59.16049382716047,0)" xlink:href="#aK"/><use transform="matrix(0.0987654320987654,0,0,0.0987654320987654,78.91358024691355,0)" xlink:href="#aL"/><use transform="matrix(0.0987654320987654,0,0,0.0987654320987654,90.66666666666663,0)" xlink:href="#aJ"/><path fill="#333" d="M-1.78 1.9h123.85v3.74H-1.78z"/></g><path fill="#333" d="M137-138c1-29-70-34-71-4 15 46 118 7 119 86 1 83-164 76-172 9l43-7c4 19 20 25 44 25 33 8 57-30 24-41C81-84 22-81 20-136c-2-80 154-74 161-7" id="aM"/><path fill="#333" d="M25-224v-37h50v37H25zM25 0v-190h50V0H25" id="aN"/><path fill="#333" d="M110-194c64 0 96 36 96 99 0 64-35 99-97 99-61 0-95-36-95-99 0-62 34-99 96-99zm-1 164c35 0 45-28 45-65 0-40-10-65-43-65-34 0-45 26-45 65 0 36 10 65 43 65" id="aO"/><path fill="#333" d="M135-194c87-1 58 113 63 194h-50c-7-57 23-157-34-157-59 0-34 97-39 157H25l-1-190h47c2 12-1 28 3 38 12-26 28-41 61-42" id="aP"/><g id="g"><use transform="matrix(0.0987654320987654,0,0,0.0987654320987654,0,0)" xlink:href="#aM"/><use transform="matrix(0.0987654320987654,0,0,0.0987654320987654,19.753086419753078,0)" xlink:href="#aJ"/><use transform="matrix(0.0987654320987654,0,0,0.0987654320987654,39.506172839506156,0)" xlink:href="#aM"/><use transform="matrix(0.0987654320987654,0,0,0.0987654320987654,59.25925925925924,0)" xlink:href="#aM"/><use transform="matrix(0.0987654320987654,0,0,0.0987654320987654,79.01234567901231,0)" xlink:href="#aN"/><use transform="matrix(0.0987654320987654,0,0,0.0987654320987654,88.88888888888886,0)" xlink:href="#aO"/><use transform="matrix(0.0987654320987654,0,0,0.0987654320987654,110.51851851851848,0)" xlink:href="#aP"/><path fill="#333" d="M-1.78 1.9H143.8v3.74H-1.78z"/></g><path fill="#333" d="M147 0L96-86 75-71V0H25v-261h50v150l67-79h53l-66 74L201 0h-54" id="aQ"/><g id="h"><use transform="matrix(0.0987654320987654,0,0,0.0987654320987654,0,0)" xlink:href="#aL"/><use transform="matrix(0.0987654320987654,0,0,0.0987654320987654,11.753086419753082,0)" xlink:href="#aO"/><use transform="matrix(0.0987654320987654,0,0,0.0987654320987654,33.38271604938271,0)" xlink:href="#aQ"/><use transform="matrix(0.0987654320987654,0,0,0.0987654320987654,53.13580246913578,0)" xlink:href="#aJ"/><use transform="matrix(0.0987654320987654,0,0,0.0987654320987654,72.88888888888886,0)" xlink:href="#aP"/><path fill="#333" d="M-1.78 1.9H96.3v3.74H-1.8z"/></g><path fill="#333" d="M616-1349c316 3 526 118 526 426 0 301-201 442-514 447H431V0H136v-1349h480zm-25 646c164 1 254-62 254-215 0-157-99-200-262-202H431v417h160" id="aR"/><path fill="#333" d="M615-1370c385 0 542 273 542 691 0 230-47 404-140 522S790 20 615 20C231 20 72-262 72-679c0-419 158-691 543-691zM797-330c77-133 78-564 0-695-44-73-101-113-182-113s-139 40-183 114c-79 133-78 560 0 694 45 77 102 118 183 118s138-41 182-118" id="aS"/><path fill="#333" d="M609-1161c-125 0-218 36-218 153 0 149 166 161 290 196 235 67 484 129 484 421 0 300-239 408-554 411C302 23 93-114 38-367l285-37c32 128 131 205 296 203 143-2 259-31 259-173 0-164-197-172-333-212-218-64-441-131-441-405 0-276 231-379 511-379 299 0 463 114 513 363l-286 29c-28-115-96-183-233-183" id="aT"/><path fill="#333" d="M762-1121V0H467v-1121H61v-228h1107v228H762" id="aU"/><g id="i"><use transform="matrix(0.008680555555555552,0,0,0.008680555555555552,0,0)" xlink:href="#aR"/><use transform="matrix(0.008680555555555552,0,0,0.008680555555555552,10.668402777777773,0)" xlink:href="#aS"/><use transform="matrix(0.008680555555555552,0,0,0.008680555555555552,21.336805555555546,0)" xlink:href="#aT"/><use transform="matrix(0.008680555555555552,0,0,0.008680555555555552,32.00520833333332,0)" xlink:href="#aU"/></g><path fill="#333" d="M89 20l821-1504h228L321 20H89" id="aV"/><path fill="#333" d="M711 13c-250 0-386-99-385-349l2-556H161v-190h181l88-282h176v282h385v190H606v530c-10 130 45 186 174 184 91-2 176-11 255-27v186C933-1 833 13 711 13" id="aW"/><path fill="#333" d="M616-1102c361 0 521 202 521 560 0 354-171 562-527 562C259 20 92-192 92-542c0-351 169-560 524-560zm-9 930c200-2 236-165 236-370 0-199-27-367-223-367-195 0-233 146-233 367 0 129 18 223 55 282s92 88 165 88" id="aX"/><path fill="#333" d="M864 0L575-490l-121 84V0H173v-1484h281v850l386-448h302L762-660 1171 0H864" id="aY"/><path fill="#333" d="M1113-274C1038-96 884 20 626 20c-352 0-526-209-526-566 0-358 185-556 530-556 358 0 496 251 499 615H395c5 180 68 319 245 319 102 0 186-45 208-129zM857-663c-6-177-128-307-315-247-94 30-141 121-145 247h460" id="aZ"/><path fill="#333" d="M768-1103c247 0 336 167 336 416V0H824v-619c-3-164-24-273-171-273-164 0-229 142-229 312V0H143c-4-359 9-736-8-1082h268c7 63 12 146 13 215h4c67-145 160-236 348-236" id="ba"/><path fill="#333" d="M622-916c-112 2-200 14-200 111 0 90 89 101 168 121 234 58 514 77 514 368C1104-4 751 54 434 5 267-21 161-112 121-270l247-37c24 111 113 145 252 141 114-3 226-12 226-124 0-101-103-113-192-134-225-54-490-76-490-351 0-247 201-328 458-328 245 0 413 88 457 292l-249 26c-16-98-92-133-208-131" id="bb"/><path fill="#333" d="M794-190h353V0H118v-190h395v-702H223v-190h571v892zM513-1277v-207h281v207H513" id="bc"/><g id="j"><use transform="matrix(0.008680555555555552,0,0,0.008680555555555552,0,0)" xlink:href="#aV"/><use transform="matrix(0.008680555555555552,0,0,0.008680555555555552,10.668402777777773,0)" xlink:href="#aW"/><use transform="matrix(0.008680555555555552,0,0,0.008680555555555552,21.336805555555546,0)" xlink:href="#aX"/><use transform="matrix(0.008680555555555552,0,0,0.008680555555555552,32.00520833333332,0)" xlink:href="#aY"/><use transform="matrix(0.008680555555555552,0,0,0.008680555555555552,42.67361111111109,0)" xlink:href="#aZ"/><use transform="matrix(0.008680555555555552,0,0,0.008680555555555552,53.342013888888864,0)" xlink:href="#ba"/><use transform="matrix(0.008680555555555552,0,0,0.008680555555555552,64.01041666666664,0)" xlink:href="#aV"/><use transform="matrix(0.008680555555555552,0,0,0.008680555555555552,74.67881944444441,0)" xlink:href="#bb"/><use transform="matrix(0.008680555555555552,0,0,0.008680555555555552,85.34722222222219,0)" xlink:href="#aZ"/><use transform="matrix(0.008680555555555552,0,0,0.008680555555555552,96.01562499999994,0)" xlink:href="#bb"/><use transform="matrix(0.008680555555555552,0,0,0.008680555555555552,106.68402777777773,0)" xlink:href="#bb"/><use transform="matrix(0.008680555555555552,0,0,0.008680555555555552,117.3524305555555,0)" xlink:href="#bc"/><use transform="matrix(0.008680555555555552,0,0,0.008680555555555552,128.0208333333333,0)" xlink:href="#aX"/><use transform="matrix(0.008680555555555552,0,0,0.008680555555555552,138.68923611111106,0)" xlink:href="#ba"/></g><path fill="#333" d="M1034 0L896-382H333L196 0H0l510-1349h217L1228 0h-194zM847-531c-77-225-157-447-231-674-69 231-154 451-232 674h463" id="bd"/><path fill="#333" d="M528 20c-247 0-343-132-343-381v-721h180v686c-4 177 45 284 224 277 194-8 279-136 279-336v-627h181c3 360-6 732 6 1082H885c-4-54-7-126-8-185h-3C809-64 714 20 528 20" id="be"/><path fill="#333" d="M682 16c-209 0-323-80-324-285v-671H190v-142h170l58-282h120v282h432v142H538v652c2 114 60 155 182 155 106 0 209-16 297-34v137C921-4 806 16 682 16" id="bf"/><path fill="#333" d="M648-963c-190 6-283 138-283 336V0H185v-1484h181c-2 197 6 404-9 587h3c62-120 159-205 339-205 242 0 351 135 350 381V0H868v-695c1-168-57-273-220-268" id="bg"/><path fill="#333" d="M615-1102c343 0 484 203 482 560-1 347-147 562-488 562-336 0-475-219-479-562-4-349 156-560 485-560zm-8 989c240 0 301-180 301-429 0-245-55-427-290-427-236 0-299 181-299 427 0 243 61 429 288 429" id="bh"/><path fill="#333" d="M839-1102c70 0 148 7 206 17v167c-112-18-268-36-363 15-129 69-208 203-208 395V0H294c-10-367 32-789-52-1082h171c21 75 41 161 48 250h5c67-152 152-270 373-270" id="bi"/><path fill="#333" d="M745-142h380V0H143v-142h422v-798H246v-142h499v940zM545-1292v-192h200v192H545" id="bj"/><path fill="#333" d="M147 0v-137l681-806H187v-139h844v137L349-139h719V0H147" id="bk"/><path fill="#333" d="M1000-272c3 95 12 159 101 161 21 0 41-3 59-7V-6c-44 10-86 16-139 16-141 2-191-84-197-217h-6C748-76 648 20 446 20c-207 0-318-120-318-322 0-266 194-348 454-354l236-4c12-191-40-305-222-305-140 0-220 47-232 172l-188-17c33-204 181-292 423-292 255 0 401 118 401 364v466zm-683-27c0 109 63 184 175 182 166-3 259-96 306-217 24-65 20-120 20-200-232 7-501-28-501 235" id="bl"/><path fill="#333" d="M706-1102c241 0 344 136 343 381V0H868v-695c1-168-57-273-220-268-190 6-283 138-283 336V0H185c-3-360 6-732-6-1082h170c4 54 7 126 8 185h3c63-121 164-204 346-205" id="bm"/><path fill="#333" d="M496 0v-299h235V0H496zm0-783v-299h235v299H496" id="bn"/><g id="l"><use transform="matrix(0.008680555555555552,0,0,0.008680555555555552,0,0)" xlink:href="#bd"/><use transform="matrix(0.008680555555555552,0,0,0.008680555555555552,10.668402777777773,0)" xlink:href="#be"/><use transform="matrix(0.008680555555555552,0,0,0.008680555555555552,21.336805555555546,0)" xlink:href="#bf"/><use transform="matrix(0.008680555555555552,0,0,0.008680555555555552,32.00520833333332,0)" xlink:href="#bg"/><use transform="matrix(0.008680555555555552,0,0,0.008680555555555552,42.67361111111109,0)" xlink:href="#bh"/><use transform="matrix(0.008680555555555552,0,0,0.008680555555555552,53.342013888888864,0)" xlink:href="#bi"/><use transform="matrix(0.008680555555555552,0,0,0.008680555555555552,64.01041666666664,0)" xlink:href="#bj"/><use transform="matrix(0.008680555555555552,0,0,0.008680555555555552,74.67881944444441,0)" xlink:href="#bk"/><use transform="matrix(0.008680555555555552,0,0,0.008680555555555552,85.34722222222219,0)" xlink:href="#bl"/><use transform="matrix(0.008680555555555552,0,0,0.008680555555555552,96.01562499999994,0)" xlink:href="#bf"/><use transform="matrix(0.008680555555555552,0,0,0.008680555555555552,106.68402777777773,0)" xlink:href="#bj"/><use transform="matrix(0.008680555555555552,0,0,0.008680555555555552,117.3524305555555,0)" xlink:href="#bh"/><use transform="matrix(0.008680555555555552,0,0,0.008680555555555552,128.0208333333333,0)" xlink:href="#bm"/><use transform="matrix(0.008680555555555552,0,0,0.008680555555555552,138.68923611111106,0)" xlink:href="#bn"/></g><path fill="#333" d="M802-711c201 25 350 118 350 331C1152-95 921 0 634 0H162v-1349c401 9 908-74 908 327 0 184-111 275-268 311zm-224-69c174-2 300-51 300-218 0-163-124-198-302-198H353v416h225zM353-153c281-2 612 44 606-244-5-271-329-233-606-234v478" id="bo"/><path fill="#333" d="M617-1102c355 0 481 238 477 599H322c5 222 84 388 301 388 144 0 244-59 284-166l158 45C1002-72 854 20 623 20c-342 0-490-220-490-568 0-346 151-554 484-554zm291 461c-18-192-90-328-289-328-194 0-287 128-295 328h584" id="bp"/><g id="m"><use transform="matrix(0.008680555555555552,0,0,0.008680555555555552,0,0)" xlink:href="#bo"/><use transform="matrix(0.008680555555555552,0,0,0.008680555555555552,10.668402777777773,0)" xlink:href="#bp"/><use transform="matrix(0.008680555555555552,0,0,0.008680555555555552,21.336805555555546,0)" xlink:href="#bl"/><use transform="matrix(0.008680555555555552,0,0,0.008680555555555552,32.00520833333332,0)" xlink:href="#bi"/><use transform="matrix(0.008680555555555552,0,0,0.008680555555555552,42.67361111111109,0)" xlink:href="#bp"/><use transform="matrix(0.008680555555555552,0,0,0.008680555555555552,53.342013888888864,0)" xlink:href="#bi"/></g><path fill="#333" d="M116-571v-205l995-418v154L253-674l858 367v153" id="bq"/><path fill="#333" d="M736-142h380V0H134v-142h422v-1200H267v-142h469v1342" id="br"/><path fill="#333" d="M1048-32c-2 300-135 456-433 456-222-1-358-88-400-267l184-25c22 99 100 157 222 156 184-2 248-125 248-315 0-64 3-133-2-194C807-100 706-13 524-12c-306 0-381-228-381-537 0-318 85-550 400-550 164 0 271 83 325 202h3c1-60 3-134 12-185h171c-13 339-4 702-6 1050zM585-145c210-8 284-178 284-406 0-192-52-331-177-392-33-16-69-22-104-22-223 2-259 184-259 414 0 229 31 415 256 406" id="bs"/><path fill="#333" d="M334-464v-160h560v160H334" id="bt"/><path fill="#333" d="M390 276c167 0 266-82 266-251v-965H249v-142h587V28c-4 270-165 397-431 397-107 0-208-16-288-43V242c80 18 173 34 273 34zm246-1568v-192h200v192H636" id="bu"/><path fill="#333" d="M1018 0H814c-67-224-138-444-200-673C552-442 476-224 407 0H204L21-1082h178c43 310 105 601 126 933 54-225 128-425 193-638h193c63 212 134 415 185 638 22-336 90-622 136-933h176" id="bv"/><path fill="#333" d="M116-154v-153l858-367-858-366v-154l995 418v205" id="bw"/><g id="n"><use transform="matrix(0.008680555555555552,0,0,0.008680555555555552,0,0)" xlink:href="#bq"/><use transform="matrix(0.008680555555555552,0,0,0.008680555555555552,10.668402777777773,0)" xlink:href="#br"/><use transform="matrix(0.008680555555555552,0,0,0.008680555555555552,21.336805555555546,0)" xlink:href="#bh"/><use transform="matrix(0.008680555555555552,0,0,0.008680555555555552,32.00520833333332,0)" xlink:href="#bs"/><use transform="matrix(0.008680555555555552,0,0,0.008680555555555552,42.67361111111109,0)" xlink:href="#bj"/><use transform="matrix(0.008680555555555552,0,0,0.008680555555555552,53.342013888888864,0)" xlink:href="#bm"/><use transform="matrix(0.008680555555555552,0,0,0.008680555555555552,64.01041666666664,0)" xlink:href="#bt"/><use transform="matrix(0.008680555555555552,0,0,0.008680555555555552,74.67881944444441,0)" xlink:href="#bu"/><use transform="matrix(0.008680555555555552,0,0,0.008680555555555552,85.34722222222219,0)" xlink:href="#bv"/><use transform="matrix(0.008680555555555552,0,0,0.008680555555555552,96.01562499999994,0)" xlink:href="#bf"/><use transform="matrix(0.008680555555555552,0,0,0.008680555555555552,106.68402777777773,0)" xlink:href="#bw"/></g><path fill="#333" d="M182-182c0 78-84 86-111 141h115V0H12c-6-101 99-100 120-180 1-22-12-31-33-32-23 0-32 14-35 34l-49-3c5-45 32-70 84-70 51 0 83 22 83 69" id="bx"/><g id="o"><use transform="matrix(0.06172839506172839,0,0,0.06172839506172839,0,0)" xlink:href="#bx"/><use transform="matrix(0.06172839506172839,0,0,0.06172839506172839,12.345679012345679,0)" xlink:href="#aG"/><path fill="#333" d="M-1.1 1.2h26.9V3.5H-1.1z"/></g><path fill="#333" d="M147 0H94L2-248h55l64 206c17-72 42-137 63-206h54" id="by"/><path fill="#333" d="M121-226c-27-7-43 5-38 36h38v33H83V0H34v-157H6v-33h28c-9-59 32-81 87-68v32" id="bz"/><path fill="#333" d="M123 10C108 53 80 86 19 72V37c35 8 53-11 59-39L3-190h52l48 148c12-52 28-100 44-148h51" id="bA"/><g id="p"><use transform="matrix(0.06172839506172839,0,0,0.06172839506172839,0,0)" xlink:href="#by"/><use transform="matrix(0.06172839506172839,0,0,0.06172839506172839,13.580246913580245,0)" xlink:href="#aJ"/><use transform="matrix(0.06172839506172839,0,0,0.06172839506172839,25.925925925925924,0)" xlink:href="#aI"/><use transform="matrix(0.06172839506172839,0,0,0.06172839506172839,34.5679012345679,0)" xlink:href="#aN"/><use transform="matrix(0.06172839506172839,0,0,0.06172839506172839,40.74074074074074,0)" xlink:href="#bz"/><use transform="matrix(0.06172839506172839,0,0,0.06172839506172839,48.08641975308642,0)" xlink:href="#bA"/><path fill="#333" d="M-1.1 1.2H67.7V3.5H-1.1z"/></g><path fill="#333" d="M6 0l51-261h49L55 0H6" id="bB"/><path fill="#333" d="M124-194c51 0 84 22 84 74C207-44 167 4 94 4 43 4 11-23 11-74c0-74 41-120 113-120zM99-30c46 0 58-42 58-86 0-27-11-44-37-44-44 0-55 40-57 84-1 27 10 45 36 46" id="bC"/><path fill="#333" d="M45-171c29-32 103-29 114 14 2-11 5-23 8-33h47L176-2c-3 70-92 96-155 64C9 56 1 42-1 25l50-5c2 28 48 27 63 11 13-13 20-45 21-66-13 20-30 35-62 36-87 3-60-134-26-172zM94-35c41-3 55-43 55-86 0-24-12-39-35-39-43 0-51 48-51 90 0 22 9 37 31 35" id="bD"/><path fill="#333" d="M50-224l7-37h49l-7 37H50zM6 0l37-190h49L55 0H6" id="bE"/><path fill="#333" d="M151-194c95 0 34 128 28 194h-49l25-134c0-29-45-25-59-9C67-111 69-48 56 0H6l36-190h47l-4 32c15-20 33-36 66-36" id="bF"/><g id="q"><use transform="matrix(0.06172839506172839,0,0,0.06172839506172839,0,0)" xlink:href="#bB"/><use transform="matrix(0.06172839506172839,0,0,0.06172839506172839,6.172839506172839,0)" xlink:href="#bC"/><use transform="matrix(0.06172839506172839,0,0,0.06172839506172839,19.691358024691358,0)" xlink:href="#bD"/><use transform="matrix(0.06172839506172839,0,0,0.06172839506172839,33.20987654320987,0)" xlink:href="#bE"/><use transform="matrix(0.06172839506172839,0,0,0.06172839506172839,39.382716049382715,0)" xlink:href="#bF"/><path fill="#333" d="M-1.1 1.2H54V3.5H-1.1z"/><path fill="#333" d="M51.8 1.2h8.4V3.5h-8.4z"/></g><path fill="#333" d="M25-224v-37h50v37H25zM75 22c2 45-34 59-81 51V38c22 5 31-5 31-27v-201h50V22" id="bG"/><path fill="#333" d="M231 0h-52l-39-155L100 0H48L-1-190h46L77-45c9-52 24-97 36-145h53l37 145 32-145h46" id="bH"/><g id="r"><use transform="matrix(0.06172839506172839,0,0,0.06172839506172839,0,0)" xlink:href="#bG"/><use transform="matrix(0.06172839506172839,0,0,0.06172839506172839,6.172839506172839,0)" xlink:href="#bH"/><use transform="matrix(0.06172839506172839,0,0,0.06172839506172839,23.456790123456788,0)" xlink:href="#aL"/><path fill="#333" d="M-1.1 1.2h33V3.5h-33z"/></g><path fill="#333" d="M128-127c34 4 56 21 59 58 7 91-148 94-172 28-4-9-6-17-7-26l51-5c1 24 16 35 40 36 23 0 39-12 38-36-1-31-31-36-65-34v-40c32 2 59-3 59-33 0-20-13-33-34-33s-33 13-35 32l-50-3c6-44 37-68 86-68 50 0 83 20 83 66 0 35-22 52-53 58" id="bI"/><path fill="#333" d="M135-194c52 0 70 43 70 98 0 56-19 99-73 100-30 1-46-15-58-35L72 0H24l1-261h50v104c11-23 29-37 60-37zM114-30c31 0 40-27 40-66 0-37-7-63-39-63s-41 28-41 65c0 36 8 64 40 64" id="bJ"/><g id="s"><use transform="matrix(0.049382716049382706,0,0,0.049382716049382706,0,0)" xlink:href="#bI"/><use transform="matrix(0.049382716049382706,0,0,0.049382716049382706,9.87654320987654,0)" xlink:href="#bJ"/><use transform="matrix(0.049382716049382706,0,0,0.049382716049382706,20.691358024691354,0)" xlink:href="#aG"/><path fill="#333" d="M-.9.95h32.36v1.87H-.9z"/></g><path fill="#333" d="M114-157C55-157 80-60 75 0H25v-261h50l-1 109c12-26 28-41 61-42 86-1 58 113 63 194h-50c-7-57 23-157-34-157" id="bK"/><path fill="#333" d="M190-63c-7 42-38 67-86 67-59 0-84-38-90-98-12-110 154-137 174-36l-49 2c-2-19-15-32-35-32-30 0-35 28-38 64-6 74 65 87 74 30" id="bL"/><g id="t"><use transform="matrix(0.049382716049382706,0,0,0.049382716049382706,0,0)" xlink:href="#aH"/><use transform="matrix(0.049382716049382706,0,0,0.049382716049382706,12.790123456790122,0)" xlink:href="#bK"/><use transform="matrix(0.049382716049382706,0,0,0.049382716049382706,23.604938271604937,0)" xlink:href="#aJ"/><use transform="matrix(0.049382716049382706,0,0,0.049382716049382706,33.48148148148148,0)" xlink:href="#bL"/><use transform="matrix(0.049382716049382706,0,0,0.049382716049382706,43.358024691358025,0)" xlink:href="#aQ"/><path fill="#333" d="M-.9.95h59.96v1.87H-.9z"/></g><path fill="#333" d="M85 4C-2 5 27-109 22-190h50c7 57-23 150 33 157 60-5 35-97 40-157h50l1 190h-47c-2-12 1-28-3-38-12 25-28 42-61 42" id="bM"/><g id="u"><use transform="matrix(0.049382716049382706,0,0,0.049382716049382706,0,0)" xlink:href="#bM"/><use transform="matrix(0.049382716049382706,0,0,0.049382716049382706,10.814814814814813,0)" xlink:href="#aM"/><use transform="matrix(0.049382716049382706,0,0,0.049382716049382706,20.691358024691354,0)" xlink:href="#aJ"/><use transform="matrix(0.049382716049382706,0,0,0.049382716049382706,30.567901234567895,0)" xlink:href="#aI"/><path fill="#333" d="M-.9.95h44.2v1.87H-.9z"/></g><path fill="#333" d="M135-194c53 0 70 44 70 98 0 56-19 98-73 100-31 1-45-17-59-34 3 33 2 69 2 105H25l-1-265h48c2 10 0 23 3 31 11-24 29-35 60-35zM114-30c33 0 39-31 40-66 0-38-9-64-40-64-56 0-55 130 0 130" id="bN"/><path fill="#333" d="M220-157c-53 9-28 100-34 157h-49v-107c1-27-5-49-29-50C55-147 81-57 75 0H25l-1-190h47c2 12-1 28 3 38 10-53 101-56 108 0 13-22 24-43 59-42 82 1 51 116 57 194h-49v-107c-1-25-5-48-29-50" id="bO"/><g id="v"><use transform="matrix(0.049382716049382706,0,0,0.049382716049382706,0,0)" xlink:href="#bN"/><use transform="matrix(0.049382716049382706,0,0,0.049382716049382706,10.814814814814813,0)" xlink:href="#aJ"/><use transform="matrix(0.049382716049382706,0,0,0.049382716049382706,20.691358024691354,0)" xlink:href="#aI"/><use transform="matrix(0.049382716049382706,0,0,0.049382716049382706,27.604938271604933,0)" xlink:href="#bO"/><use transform="matrix(0.049382716049382706,0,0,0.049382716049382706,43.4074074074074,0)" xlink:href="#aN"/><use transform="matrix(0.049382716049382706,0,0,0.049382716049382706,48.34567901234567,0)" xlink:href="#aM"/><use transform="matrix(0.049382716049382706,0,0,0.049382716049382706,58.222222222222214,0)" xlink:href="#aM"/><use transform="matrix(0.049382716049382706,0,0,0.049382716049382706,68.09876543209876,0)" xlink:href="#aN"/><use transform="matrix(0.049382716049382706,0,0,0.049382716049382706,73.03703703703702,0)" xlink:href="#aO"/><use transform="matrix(0.049382716049382706,0,0,0.049382716049382706,83.85185185185183,0)" xlink:href="#aP"/><use transform="matrix(0.049382716049382706,0,0,0.049382716049382706,94.66666666666664,0)" xlink:href="#aM"/><path fill="#333" d="M-.9.95h106.33v1.87H-.9z"/></g><path fill="#333" d="M67-93c0 74 22 123 53 168H70C40 30 18-18 18-93s22-123 52-168h50c-32 44-53 94-53 168" id="bP"/><path fill="#b2b2b2" d="M25-224v-37h50v37H25zM25 0v-190h50V0H25" id="bQ"/><path fill="#b2b2b2" d="M137-138c1-29-70-34-71-4 15 46 118 7 119 86 1 83-164 76-172 9l43-7c4 19 20 25 44 25 33 8 57-30 24-41C81-84 22-81 20-136c-2-80 154-74 161-7" id="bR"/><path fill="#b2b2b2" d="M14-72v-43h91v43H14" id="bS"/><path fill="#b2b2b2" d="M85 4C-2 5 27-109 22-190h50c7 57-23 150 33 157 60-5 35-97 40-157h50l1 190h-47c-2-12 1-28-3-38-12 25-28 42-61 42" id="bT"/><path fill="#b2b2b2" d="M185-48c-13 30-37 53-82 52C43 2 14-33 14-96s30-98 90-98c62 0 83 45 84 108H66c0 31 8 55 39 56 18 0 30-7 34-22zm-45-69c5-46-57-63-70-21-2 6-4 13-4 21h74" id="bU"/><path fill="#b2b2b2" d="M135-150c-39-12-60 13-60 57V0H25l-1-190h47c2 13-1 29 3 40 6-28 27-53 61-41v41" id="bV"/><path fill="#b2b2b2" d="M135-194c52 0 70 43 70 98 0 56-19 99-73 100-30 1-46-15-58-35L72 0H24l1-261h50v104c11-23 29-37 60-37zM114-30c31 0 40-27 40-66 0-37-7-63-39-63s-41 28-41 65c0 36 8 64 40 64" id="bW"/><path fill="#b2b2b2" d="M25 0v-261h50V0H25" id="bX"/><path fill="#b2b2b2" d="M110-194c64 0 96 36 96 99 0 64-35 99-97 99-61 0-95-36-95-99 0-62 34-99 96-99zm-1 164c35 0 45-28 45-65 0-40-10-65-43-65-34 0-45 26-45 65 0 36 10 65 43 65" id="bY"/><path fill="#b2b2b2" d="M190-63c-7 42-38 67-86 67-59 0-84-38-90-98-12-110 154-137 174-36l-49 2c-2-19-15-32-35-32-30 0-35 28-38 64-6 74 65 87 74 30" id="bZ"/><path fill="#b2b2b2" d="M147 0L96-86 75-71V0H25v-261h50v150l67-79h53l-66 74L201 0h-54" id="ca"/><path fill="#b2b2b2" d="M88-194c31-1 46 15 58 34l-1-101h50l1 261h-48c-2-10 0-23-3-31C134-8 116 4 84 4 32 4 16-41 15-95c0-56 19-97 73-99zm17 164c33 0 40-30 41-66 1-37-9-64-41-64s-38 30-39 65c0 43 13 65 39 65" id="cb"/><path fill="#b2b2b2" d="M110-251c83-7 118 89 53 130-17 10-36 21-38 46H78c2-56 65-53 71-103 2-21-15-35-38-34-25 1-41 14-44 38l-50-2c6-48 39-70 93-75zM77 0v-47h51V0H77" id="cc"/><g id="w"><use transform="matrix(0.049382716049382706,0,0,0.049382716049382706,0,0)" xlink:href="#bP"/><path fill="#333" d="M-.9.95h7.66v1.87H-.9z"/><use transform="matrix(0.049382716049382706,0,0,0.049382716049382706,5.876543209876542,0)" xlink:href="#bQ"/><use transform="matrix(0.049382716049382706,0,0,0.049382716049382706,10.814814814814813,0)" xlink:href="#bR"/><use transform="matrix(0.049382716049382706,0,0,0.049382716049382706,20.691358024691354,0)" xlink:href="#bS"/><use transform="matrix(0.049382716049382706,0,0,0.049382716049382706,26.567901234567895,0)" xlink:href="#bT"/><use transform="matrix(0.049382716049382706,0,0,0.049382716049382706,37.38271604938271,0)" xlink:href="#bR"/><use transform="matrix(0.049382716049382706,0,0,0.049382716049382706,47.25925925925925,0)" xlink:href="#bU"/><use transform="matrix(0.049382716049382706,0,0,0.049382716049382706,57.13580246913579,0)" xlink:href="#bV"/><use transform="matrix(0.049382716049382706,0,0,0.049382716049382706,64.04938271604938,0)" xlink:href="#bS"/><use transform="matrix(0.049382716049382706,0,0,0.049382716049382706,69.92592592592592,0)" xlink:href="#bW"/><use transform="matrix(0.049382716049382706,0,0,0.049382716049382706,80.74074074074073,0)" xlink:href="#bX"/><use transform="matrix(0.049382716049382706,0,0,0.049382716049382706,85.679012345679,0)" xlink:href="#bY"/><use transform="matrix(0.049382716049382706,0,0,0.049382716049382706,96.49382716049381,0)" xlink:href="#bZ"/><use transform="matrix(0.049382716049382706,0,0,0.049382716049382706,106.37037037037035,0)" xlink:href="#ca"/><use transform="matrix(0.049382716049382706,0,0,0.049382716049382706,116.2469135802469,0)" xlink:href="#bU"/><use transform="matrix(0.049382716049382706,0,0,0.049382716049382706,126.12345679012343,0)" xlink:href="#cb"/><use transform="matrix(0.049382716049382706,0,0,0.049382716049382706,136.93827160493825,0)" xlink:href="#cc"/><path fill="#b2b2b2" d="M5 .95h148.58v1.87H4.98z"/></g><path fill="#b2b2b2" d="M220-157c-53 9-28 100-34 157h-49v-107c1-27-5-49-29-50C55-147 81-57 75 0H25l-1-190h47c2 12-1 28 3 38 10-53 101-56 108 0 13-22 24-43 59-42 82 1 51 116 57 194h-49v-107c-1-25-5-48-29-50" id="cd"/><path fill="#b2b2b2" d="M115-3C79 11 28 4 28-45v-112H4v-33h27l15-45h31v45h36v33H77v99c-1 23 16 31 38 25v30" id="ce"/><path fill="#b2b2b2" d="M195-6C206 82 75 100 31 46c-4-6-6-13-8-21l49-6c3 16 16 24 34 25 40 0 42-37 40-79-11 22-30 35-61 35-53 0-70-43-70-97 0-56 18-96 73-97 30 0 46 14 59 34l2-30h47zm-90-29c32 0 41-27 41-63 0-35-9-62-40-62-32 0-39 29-40 63 0 36 9 62 39 62" id="cf"/><path fill="#b2b2b2" d="M135-194c87-1 58 113 63 194h-50c-7-57 23-157-34-157-59 0-34 97-39 157H25l-1-190h47c2 12-1 28 3 38 12-26 28-41 61-42" id="cg"/><path fill="#b2b2b2" d="M133-34C117-15 103 5 69 4 32 3 11-16 11-54c-1-60 55-63 116-61 1-26-3-47-28-47-18 1-26 9-28 27l-52-2c7-38 36-58 82-57s74 22 75 68l1 82c-1 14 12 18 25 15v27c-30 8-71 5-69-32zm-48 3c29 0 43-24 42-57-32 0-66-3-65 30 0 17 8 27 23 27" id="ch"/><g id="x"><use transform="matrix(0.049382716049382706,0,0,0.049382716049382706,0,0)" xlink:href="#cd"/><use transform="matrix(0.049382716049382706,0,0,0.049382716049382706,15.802469135802466,0)" xlink:href="#bT"/><use transform="matrix(0.049382716049382706,0,0,0.049382716049382706,26.617283950617278,0)" xlink:href="#bR"/><use transform="matrix(0.049382716049382706,0,0,0.049382716049382706,36.49382716049382,0)" xlink:href="#ce"/><use transform="matrix(0.049382716049382706,0,0,0.049382716049382706,42.37037037037037,0)" xlink:href="#bS"/><use transform="matrix(0.049382716049382706,0,0,0.049382716049382706,48.24691358024691,0)" xlink:href="#bX"/><use transform="matrix(0.049382716049382706,0,0,0.049382716049382706,53.18518518518518,0)" xlink:href="#bY"/><use transform="matrix(0.049382716049382706,0,0,0.049382716049382706,64,0)" xlink:href="#cf"/><use transform="matrix(0.049382716049382706,0,0,0.049382716049382706,74.81481481481481,0)" xlink:href="#bQ"/><use transform="matrix(0.049382716049382706,0,0,0.049382716049382706,79.75308641975307,0)" xlink:href="#cg"/><use transform="matrix(0.049382716049382706,0,0,0.049382716049382706,90.56790123456788,0)" xlink:href="#bS"/><use transform="matrix(0.049382716049382706,0,0,0.049382716049382706,96.44444444444443,0)" xlink:href="#ch"/><use transform="matrix(0.049382716049382706,0,0,0.049382716049382706,106.32098765432097,0)" xlink:href="#cf"/><use transform="matrix(0.049382716049382706,0,0,0.049382716049382706,117.13580246913578,0)" xlink:href="#ch"/><use transform="matrix(0.049382716049382706,0,0,0.049382716049382706,127.01234567901233,0)" xlink:href="#bQ"/><use transform="matrix(0.049382716049382706,0,0,0.049382716049382706,131.9506172839506,0)" xlink:href="#cg"/><use transform="matrix(0.049382716049382706,0,0,0.049382716049382706,142.76543209876542,0)" xlink:href="#cc"/><path fill="#b2b2b2" d="M-.9.95h160.3v1.87H-.9z"/></g><path fill="#b2b2b2" d="M24 0v-54h51V0H24" id="ci"/><path fill="#333" d="M102-93c0 74-22 123-52 168H0C30 29 54-18 53-93c0-74-22-123-53-168h50c30 45 52 94 52 168" id="cj"/><g id="y"><use transform="matrix(0.049382716049382706,0,0,0.049382716049382706,0,0)" xlink:href="#ci"/><use transform="matrix(0.049382716049382706,0,0,0.049382716049382706,4.93827160493827,0)" xlink:href="#ci"/><use transform="matrix(0.049382716049382706,0,0,0.049382716049382706,9.87654320987654,0)" xlink:href="#ci"/><path fill="#b2b2b2" d="M-.9.95h16.6v1.87H-.9z"/><use transform="matrix(0.049382716049382706,0,0,0.049382716049382706,14.814814814814811,0)" xlink:href="#cj"/><path fill="#333" d="M13.93.95h7.65v1.87h-7.65z"/></g><path fill="#333" d="M165-50V0h-47v-50H5v-38l105-160h55v161h33v37h-33zm-47-37l2-116L46-87h72" id="ck"/><g id="z"><use transform="matrix(0.06172839506172839,0,0,0.06172839506172839,0,0)" xlink:href="#ck"/><use transform="matrix(0.06172839506172839,0,0,0.06172839506172839,12.345679012345679,0)" xlink:href="#aG"/><path fill="#333" d="M-1.1 1.2h26.9V3.5H-1.1z"/></g><path fill="#333" d="M238-95c0 69-44 99-111 99C63 4 22-25 22-93v-155h51v151c-1 38 19 59 55 60 90 1 49-130 58-211h52v153" id="cl"/><path fill="#333" d="M88-194c31-1 46 15 58 34l-1-101h50l1 261h-48c-2-10 0-23-3-31C134-8 116 4 84 4 32 4 16-41 15-95c0-56 19-97 73-99zm17 164c33 0 40-30 41-66 1-37-9-64-41-64s-38 30-39 65c0 43 13 65 39 65" id="cm"/><g id="A"><use transform="matrix(0.06172839506172839,0,0,0.06172839506172839,0,0)" xlink:href="#cl"/><use transform="matrix(0.06172839506172839,0,0,0.06172839506172839,15.987654320987653,0)" xlink:href="#bN"/><use transform="matrix(0.06172839506172839,0,0,0.06172839506172839,29.50617283950617,0)" xlink:href="#cm"/><use transform="matrix(0.06172839506172839,0,0,0.06172839506172839,43.02469135802469,0)" xlink:href="#aK"/><use transform="matrix(0.06172839506172839,0,0,0.06172839506172839,55.37037037037037,0)" xlink:href="#aL"/><use transform="matrix(0.06172839506172839,0,0,0.06172839506172839,62.716049382716044,0)" xlink:href="#aJ"/><path fill="#333" d="M-1.1 1.2h83.45V3.5H-1.1z"/></g><path fill="#333" d="M166-52c-4 17 5 29 24 23l-3 27c-30 11-74 1-67-34C105-15 91 4 56 4 23 4 3-15 2-49c0-64 63-67 128-67 10-22 3-53-29-45-13 3-22 10-25 24l-46-5c5-64 156-77 153 0-1 33-11 60-17 90zM97-88c-44-9-64 57-19 57 31 0 42-28 47-57H97" id="cn"/><path fill="#333" d="M144-137c-1-29-70-35-71-2 16 41 103 10 103 80C176 9 79 16 32-9 18-17 9-31 4-48l44-6c3 32 80 36 82 1-15-42-103-11-103-82 0-77 157-79 161-8" id="co"/><path fill="#333" d="M72-63c-8 23 5 39 32 30L98-1C54 14 12-6 23-64l18-93H15l7-33h28l24-45h31l-8 45h35l-6 33H90" id="cp"/><path fill="#333" d="M6 0l48-248h52L66-40h133l-8 40H6" id="cq"/><path fill="#333" d="M157-208L117 0H65l40-208H25l8-40h212l-8 40h-80" id="cr"/><path fill="#333" d="M255-194c90 0 29 129 24 194h-49l25-136c-7-39-53-14-60 9-12 38-18 85-28 127h-49l25-136c2-29-39-23-50-7C69-108 68-47 56 0H6l36-190h48c-1 10-6 24-4 32 12-20 27-36 57-36s46 15 50 41c14-21 29-41 62-41" id="cs"/><path fill="#333" d="M114-194c63-2 87 48 72 110H63c-3 28 1 55 31 54 21-1 32-13 37-29l44 13C160-14 137 4 91 4 41 4 11-22 11-73c0-71 33-119 103-121zm30 77c14-47-50-61-67-22-3 6-6 13-8 22h75" id="ct"/><g id="B"><use transform="matrix(0.06172839506172839,0,0,0.06172839506172839,0,0)" xlink:href="#bB"/><use transform="matrix(0.06172839506172839,0,0,0.06172839506172839,6.172839506172839,0)" xlink:href="#cn"/><use transform="matrix(0.06172839506172839,0,0,0.06172839506172839,18.51851851851852,0)" xlink:href="#co"/><use transform="matrix(0.06172839506172839,0,0,0.06172839506172839,30.864197530864196,0)" xlink:href="#cp"/><use transform="matrix(0.06172839506172839,0,0,0.06172839506172839,38.20987654320987,0)" xlink:href="#cq"/><use transform="matrix(0.06172839506172839,0,0,0.06172839506172839,51.72839506172839,0)" xlink:href="#bC"/><use transform="matrix(0.06172839506172839,0,0,0.06172839506172839,65.24691358024691,0)" xlink:href="#bD"/><use transform="matrix(0.06172839506172839,0,0,0.06172839506172839,78.76543209876543,0)" xlink:href="#bE"/><use transform="matrix(0.06172839506172839,0,0,0.06172839506172839,84.93827160493827,0)" xlink:href="#bF"/><use transform="matrix(0.06172839506172839,0,0,0.06172839506172839,98.45679012345678,0)" xlink:href="#cr"/><use transform="matrix(0.06172839506172839,0,0,0.06172839506172839,111.5432098765432,0)" xlink:href="#bE"/><use transform="matrix(0.06172839506172839,0,0,0.06172839506172839,117.71604938271604,0)" xlink:href="#cs"/><use transform="matrix(0.06172839506172839,0,0,0.06172839506172839,137.4691358024691,0)" xlink:href="#ct"/><path fill="#333" d="M-1.1 1.2h152.03V3.5H-1.1z"/></g><path fill="#7ab648" d="M115-159c48 0 72 30 72 78 0 54-30 85-83 85-64 0-91-50-91-122 0-98 58-163 141-120 15 8 21 24 27 44l-47 6c-5-31-48-31-61-4-7 14-11 33-11 60 9-17 28-27 53-27zM102-35c24 0 36-20 36-45s-11-43-37-43c-23 0-36 14-36 38 0 27 11 50 37 50" id="cu"/><path fill="#7ab648" d="M24 0v-54h51V0H24" id="cv"/><g id="C"><use transform="matrix(0.06172839506172839,0,0,0.06172839506172839,0,0)" xlink:href="#cu"/><use transform="matrix(0.06172839506172839,0,0,0.06172839506172839,12.345679012345679,0)" xlink:href="#cv"/><path fill="#7ab648" d="M-1.1 1.2h26.9V3.5H-1.1z"/></g><path fill="#7ab648" d="M169-182c-1-43-94-46-97-3 18 66 151 10 154 114 3 95-165 93-204 36-6-8-10-19-12-30l50-8c3 46 112 56 116 5-17-69-150-10-154-114-4-87 153-88 188-35 5 8 8 18 10 28" id="cw"/><path fill="#7ab648" d="M185-48c-13 30-37 53-82 52C43 2 14-33 14-96s30-98 90-98c62 0 83 45 84 108H66c0 31 8 55 39 56 18 0 30-7 34-22zm-45-69c5-46-57-63-70-21-2 6-4 13-4 21h74" id="cx"/><path fill="#7ab648" d="M135-194c87-1 58 113 63 194h-50c-7-57 23-157-34-157-59 0-34 97-39 157H25l-1-190h47c2 12-1 28 3 38 12-26 28-41 61-42" id="cy"/><path fill="#7ab648" d="M88-194c31-1 46 15 58 34l-1-101h50l1 261h-48c-2-10 0-23-3-31C134-8 116 4 84 4 32 4 16-41 15-95c0-56 19-97 73-99zm17 164c33 0 40-30 41-66 1-37-9-64-41-64s-38 30-39 65c0 43 13 65 39 65" id="cz"/><g id="D"><use transform="matrix(0.06172839506172839,0,0,0.06172839506172839,0,0)" xlink:href="#cw"/><use transform="matrix(0.06172839506172839,0,0,0.06172839506172839,14.814814814814813,0)" xlink:href="#cx"/><use transform="matrix(0.06172839506172839,0,0,0.06172839506172839,27.160493827160494,0)" xlink:href="#cy"/><use transform="matrix(0.06172839506172839,0,0,0.06172839506172839,40.67901234567901,0)" xlink:href="#cz"/><path fill="#7ab648" d="M-1.1 1.2h62.58V3.5h-62.6z"/></g><path fill="#7ab648" d="M238-95c0 69-44 99-111 99C63 4 22-25 22-93v-155h51v151c-1 38 19 59 55 60 90 1 49-130 58-211h52v153" id="cA"/><path fill="#7ab648" d="M67-125c0 53 21 87 73 88 37 1 54-22 65-47l45 17C233-25 199 4 140 4 58 4 20-42 15-125 8-235 124-281 211-232c18 10 29 29 36 50l-46 12c-8-25-30-41-62-41-52 0-71 34-72 86" id="cB"/><path fill="#7ab648" d="M24 0v-248h195v40H76v63h132v40H76v65h150V0H24" id="cC"/><g id="E"><use transform="matrix(0.06172839506172839,0,0,0.06172839506172839,0,0)" xlink:href="#cw"/><use transform="matrix(0.06172839506172839,0,0,0.06172839506172839,14.814814814814813,0)" xlink:href="#cA"/><use transform="matrix(0.06172839506172839,0,0,0.06172839506172839,30.80246913580247,0)" xlink:href="#cB"/><use transform="matrix(0.06172839506172839,0,0,0.06172839506172839,46.79012345679012,0)" xlink:href="#cB"/><use transform="matrix(0.06172839506172839,0,0,0.06172839506172839,62.77777777777777,0)" xlink:href="#cC"/><use transform="matrix(0.06172839506172839,0,0,0.06172839506172839,77.59259259259258,0)" xlink:href="#cw"/><use transform="matrix(0.06172839506172839,0,0,0.06172839506172839,92.40740740740739,0)" xlink:href="#cw"/><path fill="#7ab648" d="M-1.1 1.2h115.6V3.5H-1.1z"/></g><path fill="#7ab648" d="M135-150c-39-12-60 13-60 57V0H25l-1-190h47c2 13-1 29 3 40 6-28 27-53 61-41v41" id="cD"/><path fill="#7ab648" d="M137-138c1-29-70-34-71-4 15 46 118 7 119 86 1 83-164 76-172 9l43-7c4 19 20 25 44 25 33 8 57-30 24-41C81-84 22-81 20-136c-2-80 154-74 161-7" id="cE"/><path fill="#7ab648" d="M135-194c53 0 70 44 70 98 0 56-19 98-73 100-31 1-45-17-59-34 3 33 2 69 2 105H25l-1-265h48c2 10 0 23 3 31 11-24 29-35 60-35zM114-30c33 0 39-31 40-66 0-38-9-64-40-64-56 0-55 130 0 130" id="cF"/><path fill="#7ab648" d="M110-194c64 0 96 36 96 99 0 64-35 99-97 99-61 0-95-36-95-99 0-62 34-99 96-99zm-1 164c35 0 45-28 45-65 0-40-10-65-43-65-34 0-45 26-45 65 0 36 10 65 43 65" id="cG"/><path fill="#7ab648" d="M80-75H40l-6-173h52zM34 0v-47h51V0H34" id="cH"/><g id="F"><use transform="matrix(0.06172839506172839,0,0,0.06172839506172839,0,0)" xlink:href="#cD"/><use transform="matrix(0.06172839506172839,0,0,0.06172839506172839,8.641975308641975,0)" xlink:href="#cx"/><use transform="matrix(0.06172839506172839,0,0,0.06172839506172839,20.98765432098765,0)" xlink:href="#cE"/><use transform="matrix(0.06172839506172839,0,0,0.06172839506172839,33.33333333333333,0)" xlink:href="#cF"/><use transform="matrix(0.06172839506172839,0,0,0.06172839506172839,46.85185185185185,0)" xlink:href="#cG"/><use transform="matrix(0.06172839506172839,0,0,0.06172839506172839,60.37037037037037,0)" xlink:href="#cy"/><use transform="matrix(0.06172839506172839,0,0,0.06172839506172839,73.88888888888889,0)" xlink:href="#cE"/><use transform="matrix(0.06172839506172839,0,0,0.06172839506172839,86.23456790123457,0)" xlink:href="#cx"/><use transform="matrix(0.06172839506172839,0,0,0.06172839506172839,98.58024691358025,0)" xlink:href="#cH"/><path fill="#7ab648" d="M-1.1 1.2h108.14V3.5H-1.1z"/></g><path fill="#333" d="M650-1214c-281 0-336 244-336 533 0 295 60 546 347 546 188 0 263-142 322-282l159 65C1058-155 935 20 659 20c-401 0-546-295-546-701 0-407 135-689 536-689 264 0 391 146 466 335l-168 65c-47-129-127-244-297-244" id="cI"/><path fill="#333" d="M709-1193V0H519v-1193H76v-156h1076v156H709" id="cJ"/><path fill="#333" d="M168 279c222 39 310-114 368-290L66-1082h192c120 299 249 590 362 896 115-301 235-597 351-896h190L705 0c-65 164-130 320-275 396-67 36-177 35-262 18V279" id="cK"/><path fill="#333" d="M698-1104c312 3 392 244 392 558 0 315-82 566-392 566-169 0-277-65-331-184h-5c8 188 2 394 4 589H185V-858c0-76-1-156-6-224h175c6 52 9 120 10 178h4c58-122 150-202 330-200zm-49 991c225 0 255-203 255-433 0-225-32-419-253-419-236 0-285 192-285 441 0 237 53 411 283 411" id="cL"/><g id="G"><use transform="matrix(0.008680555555555554,0,0,0.008680555555555554,0,0)" xlink:href="#cI"/><use transform="matrix(0.008680555555555554,0,0,0.008680555555555554,10.668402777777777,0)" xlink:href="#bh"/><use transform="matrix(0.008680555555555554,0,0,0.008680555555555554,21.336805555555554,0)" xlink:href="#bm"/><use transform="matrix(0.008680555555555554,0,0,0.008680555555555554,32.00520833333333,0)" xlink:href="#bf"/><use transform="matrix(0.008680555555555554,0,0,0.008680555555555554,42.67361111111111,0)" xlink:href="#bp"/><use transform="matrix(0.008680555555555554,0,0,0.008680555555555554,53.342013888888886,0)" xlink:href="#bm"/><use transform="matrix(0.008680555555555554,0,0,0.008680555555555554,64.01041666666666,0)" xlink:href="#bf"/><use transform="matrix(0.008680555555555554,0,0,0.008680555555555554,74.67881944444443,0)" xlink:href="#bt"/><use transform="matrix(0.008680555555555554,0,0,0.008680555555555554,85.3472222222222,0)" xlink:href="#cJ"/><use transform="matrix(0.008680555555555554,0,0,0.008680555555555554,96.01562499999997,0)" xlink:href="#cK"/><use transform="matrix(0.008680555555555554,0,0,0.008680555555555554,106.68402777777774,0)" xlink:href="#cL"/><use transform="matrix(0.008680555555555554,0,0,0.008680555555555554,117.35243055555551,0)" xlink:href="#bp"/><use transform="matrix(0.008680555555555554,0,0,0.008680555555555554,128.0208333333333,0)" xlink:href="#bn"/></g><path fill="#333" d="M684-845H543l-41-639h224" id="cM"/><path fill="#333" d="M631 20c-350 0-501-215-501-562 0-355 162-560 502-560 250 0 399 118 446 323l-192 14c-23-124-109-196-262-196-242 0-305 171-305 415 1 245 61 427 304 427 151 0 248-77 267-215l190 12C1039-107 883 20 631 20" id="cN"/><path fill="#333" d="M114 20l821-1504h178L296 20H114" id="cO"/><g id="H"><use transform="matrix(0.008680555555555554,0,0,0.008680555555555554,0,0)" xlink:href="#cM"/><use transform="matrix(0.008680555555555554,0,0,0.008680555555555554,10.668402777777777,0)" xlink:href="#bl"/><use transform="matrix(0.008680555555555554,0,0,0.008680555555555554,21.336805555555554,0)" xlink:href="#cL"/><use transform="matrix(0.008680555555555554,0,0,0.008680555555555554,32.00520833333333,0)" xlink:href="#cL"/><use transform="matrix(0.008680555555555554,0,0,0.008680555555555554,42.67361111111111,0)" xlink:href="#br"/><use transform="matrix(0.008680555555555554,0,0,0.008680555555555554,53.342013888888886,0)" xlink:href="#bj"/><use transform="matrix(0.008680555555555554,0,0,0.008680555555555554,64.01041666666666,0)" xlink:href="#cN"/><use transform="matrix(0.008680555555555554,0,0,0.008680555555555554,74.67881944444443,0)" xlink:href="#bl"/><use transform="matrix(0.008680555555555554,0,0,0.008680555555555554,85.3472222222222,0)" xlink:href="#bf"/><use transform="matrix(0.008680555555555554,0,0,0.008680555555555554,96.01562499999997,0)" xlink:href="#bj"/><use transform="matrix(0.008680555555555554,0,0,0.008680555555555554,106.68402777777774,0)" xlink:href="#bh"/><use transform="matrix(0.008680555555555554,0,0,0.008680555555555554,117.35243055555551,0)" xlink:href="#bm"/><use transform="matrix(0.008680555555555554,0,0,0.008680555555555554,128.0208333333333,0)" xlink:href="#cO"/><use transform="matrix(0.008680555555555554,0,0,0.008680555555555554,138.68923611111106,0)" xlink:href="#bu"/><use transform="matrix(0.008680555555555554,0,0,0.008680555555555554,149.35763888888883,0)" xlink:href="#bv"/><use transform="matrix(0.008680555555555554,0,0,0.008680555555555554,160.0260416666666,0)" xlink:href="#bf"/><use transform="matrix(0.008680555555555554,0,0,0.008680555555555554,170.6944444444444,0)" xlink:href="#cM"/></g><path fill="#333" d="M873-819c-18-114-119-146-250-146-163 0-245 50-245 151 0 151 170 148 294 185 182 54 388 94 388 320 0 240-189 325-439 329-245 4-410-69-454-268l159-31c24 133 136 168 295 165 144-2 270-31 270-171 0-164-195-160-331-202-167-52-350-87-350-299 0-218 173-315 413-313 220 2 373 77 412 260" id="cP"/><g id="J"><use transform="matrix(0.008680555555555554,0,0,0.008680555555555554,0,0)" xlink:href="#bq"/><use transform="matrix(0.008680555555555554,0,0,0.008680555555555554,10.668402777777777,0)" xlink:href="#cP"/><use transform="matrix(0.008680555555555554,0,0,0.008680555555555554,21.336805555555554,0)" xlink:href="#bp"/><use transform="matrix(0.008680555555555554,0,0,0.008680555555555554,32.00520833333333,0)" xlink:href="#cP"/><use transform="matrix(0.008680555555555554,0,0,0.008680555555555554,42.67361111111111,0)" xlink:href="#cP"/><use transform="matrix(0.008680555555555554,0,0,0.008680555555555554,53.342013888888886,0)" xlink:href="#bj"/><use transform="matrix(0.008680555555555554,0,0,0.008680555555555554,64.01041666666666,0)" xlink:href="#bh"/><use transform="matrix(0.008680555555555554,0,0,0.008680555555555554,74.67881944444443,0)" xlink:href="#bm"/><use transform="matrix(0.008680555555555554,0,0,0.008680555555555554,85.3472222222222,0)" xlink:href="#bt"/><use transform="matrix(0.008680555555555554,0,0,0.008680555555555554,96.01562499999997,0)" xlink:href="#bu"/><use transform="matrix(0.008680555555555554,0,0,0.008680555555555554,106.68402777777774,0)" xlink:href="#bv"/><use transform="matrix(0.008680555555555554,0,0,0.008680555555555554,117.35243055555551,0)" xlink:href="#bf"/><use transform="matrix(0.008680555555555554,0,0,0.008680555555555554,128.0208333333333,0)" xlink:href="#bw"/></g><g id="K"><use transform="matrix(0.06172839506172839,0,0,0.06172839506172839,0,0)" xlink:href="#bI"/><use transform="matrix(0.06172839506172839,0,0,0.06172839506172839,12.345679012345679,0)" xlink:href="#bL"/><use transform="matrix(0.06172839506172839,0,0,0.06172839506172839,24.691358024691358,0)" xlink:href="#aG"/><path fill="#333" d="M-1.1 1.2h39.25V3.5H-1.1z"/></g><path fill="#333" d="M128 0H69L1-190h53L99-40l48-150h52" id="cQ"/><path fill="#333" d="M25 0v-261h50V0H25" id="cR"/><g id="L"><use transform="matrix(0.06172839506172839,0,0,0.06172839506172839,0,0)" xlink:href="#aN"/><use transform="matrix(0.06172839506172839,0,0,0.06172839506172839,6.172839506172839,0)" xlink:href="#aP"/><use transform="matrix(0.06172839506172839,0,0,0.06172839506172839,19.691358024691358,0)" xlink:href="#cQ"/><use transform="matrix(0.06172839506172839,0,0,0.06172839506172839,32.03703703703704,0)" xlink:href="#aK"/><use transform="matrix(0.06172839506172839,0,0,0.06172839506172839,44.382716049382715,0)" xlink:href="#cR"/><use transform="matrix(0.06172839506172839,0,0,0.06172839506172839,50.55555555555556,0)" xlink:href="#aN"/><use transform="matrix(0.06172839506172839,0,0,0.06172839506172839,56.7283950617284,0)" xlink:href="#cm"/><path fill="#333" d="M-1.1 1.2h78.63V3.5H-1.1z"/></g><g id="M"><use transform="matrix(0.06172839506172839,0,0,0.06172839506172839,0,0)" xlink:href="#aL"/><use transform="matrix(0.06172839506172839,0,0,0.06172839506172839,7.345679012345679,0)" xlink:href="#aO"/><use transform="matrix(0.06172839506172839,0,0,0.06172839506172839,20.864197530864196,0)" xlink:href="#aQ"/><use transform="matrix(0.06172839506172839,0,0,0.06172839506172839,33.20987654320987,0)" xlink:href="#aJ"/><use transform="matrix(0.06172839506172839,0,0,0.06172839506172839,45.55555555555555,0)" xlink:href="#aP"/><path fill="#333" d="M-1.1 1.2h67.46V3.5H-1.1z"/></g><g id="N"><use transform="matrix(0.06172839506172839,0,0,0.06172839506172839,0,0)" xlink:href="#bN"/><use transform="matrix(0.06172839506172839,0,0,0.06172839506172839,13.518518518518517,0)" xlink:href="#aJ"/><use transform="matrix(0.06172839506172839,0,0,0.06172839506172839,25.864197530864196,0)" xlink:href="#aI"/><use transform="matrix(0.06172839506172839,0,0,0.06172839506172839,34.50617283950617,0)" xlink:href="#bO"/><use transform="matrix(0.06172839506172839,0,0,0.06172839506172839,54.25925925925925,0)" xlink:href="#aN"/><use transform="matrix(0.06172839506172839,0,0,0.06172839506172839,60.432098765432094,0)" xlink:href="#aM"/><use transform="matrix(0.06172839506172839,0,0,0.06172839506172839,72.77777777777777,0)" xlink:href="#aM"/><use transform="matrix(0.06172839506172839,0,0,0.06172839506172839,85.12345679012346,0)" xlink:href="#aN"/><use transform="matrix(0.06172839506172839,0,0,0.06172839506172839,91.29629629629629,0)" xlink:href="#aO"/><use transform="matrix(0.06172839506172839,0,0,0.06172839506172839,104.81481481481481,0)" xlink:href="#aP"/><use transform="matrix(0.06172839506172839,0,0,0.06172839506172839,118.33333333333333,0)" xlink:href="#aM"/><path fill="#333" d="M-1.1 1.2h139.06V3.5H-1.1z"/></g><g id="O"><use transform="matrix(0.06172839506172839,0,0,0.06172839506172839,0,0)" xlink:href="#aO"/><use transform="matrix(0.06172839506172839,0,0,0.06172839506172839,13.518518518518517,0)" xlink:href="#aI"/><path fill="#333" d="M-1.1 1.2h24.37V3.5H-1.1z"/></g><g id="P"><use transform="matrix(0.06172839506172839,0,0,0.06172839506172839,0,0)" xlink:href="#cR"/><use transform="matrix(0.06172839506172839,0,0,0.06172839506172839,6.172839506172839,0)" xlink:href="#aK"/><use transform="matrix(0.06172839506172839,0,0,0.06172839506172839,18.51851851851852,0)" xlink:href="#aM"/><use transform="matrix(0.06172839506172839,0,0,0.06172839506172839,30.864197530864196,0)" xlink:href="#aL"/><path fill="#333" d="M-1.1 1.2h46.6V3.5H-1.1z"/></g><path fill="#333" d="M195-6C206 82 75 100 31 46c-4-6-6-13-8-21l49-6c3 16 16 24 34 25 40 0 42-37 40-79-11 22-30 35-61 35-53 0-70-43-70-97 0-56 18-96 73-97 30 0 46 14 59 34l2-30h47zm-90-29c32 0 41-27 41-63 0-35-9-62-40-62-32 0-39 29-40 63 0 36 9 62 39 62" id="cS"/><g id="Q"><use transform="matrix(0.06172839506172839,0,0,0.06172839506172839,0,0)" xlink:href="#cR"/><use transform="matrix(0.06172839506172839,0,0,0.06172839506172839,6.172839506172839,0)" xlink:href="#aO"/><use transform="matrix(0.06172839506172839,0,0,0.06172839506172839,19.691358024691358,0)" xlink:href="#cS"/><use transform="matrix(0.06172839506172839,0,0,0.06172839506172839,33.20987654320987,0)" xlink:href="#aN"/><use transform="matrix(0.06172839506172839,0,0,0.06172839506172839,39.382716049382715,0)" xlink:href="#aP"/><path fill="#333" d="M-1.1 1.2h61.3V3.5H-1.1z"/></g><g id="R"><use transform="matrix(0.06172839506172839,0,0,0.06172839506172839,0,0)" xlink:href="#bH"/><use transform="matrix(0.06172839506172839,0,0,0.06172839506172839,17.28395061728395,0)" xlink:href="#aK"/><use transform="matrix(0.06172839506172839,0,0,0.06172839506172839,29.629629629629626,0)" xlink:href="#aM"/><path fill="#333" d="M-1.1 1.2h50.36V3.5H-1.1z"/></g><g id="S"><use transform="matrix(0.06172839506172839,0,0,0.06172839506172839,0,0)" xlink:href="#aL"/><use transform="matrix(0.06172839506172839,0,0,0.06172839506172839,7.345679012345679,0)" xlink:href="#aO"/><use transform="matrix(0.06172839506172839,0,0,0.06172839506172839,20.864197530864196,0)" xlink:href="#aO"/><path fill="#333" d="M-1.1 1.2h42.77V3.5H-1.1z"/></g><g id="T"><use transform="matrix(0.06172839506172839,0,0,0.06172839506172839,0,0)" xlink:href="#cR"/><use transform="matrix(0.06172839506172839,0,0,0.06172839506172839,6.172839506172839,0)" xlink:href="#aO"/><use transform="matrix(0.06172839506172839,0,0,0.06172839506172839,19.691358024691358,0)" xlink:href="#aP"/><use transform="matrix(0.06172839506172839,0,0,0.06172839506172839,33.20987654320987,0)" xlink:href="#cS"/><path fill="#333" d="M-1.1 1.2H54V3.5H-1.1z"/></g><path fill="#333" d="M110-251c83-7 118 89 53 130-17 10-36 21-38 46H78c2-56 65-53 71-103 2-21-15-35-38-34-25 1-41 14-44 38l-50-2c6-48 39-70 93-75zM77 0v-47h51V0H77" id="cT"/><g id="U"><use transform="matrix(0.06172839506172839,0,0,0.06172839506172839,0,0)" xlink:href="#aK"/><use transform="matrix(0.06172839506172839,0,0,0.06172839506172839,12.345679012345679,0)" xlink:href="#cS"/><use transform="matrix(0.06172839506172839,0,0,0.06172839506172839,25.864197530864196,0)" xlink:href="#aO"/><use transform="matrix(0.06172839506172839,0,0,0.06172839506172839,39.382716049382715,0)" xlink:href="#cT"/><path fill="#333" d="M-1.1 1.2H54V3.5H-1.1z"/></g><path fill="#c92d39" d="M128-127c34 4 56 21 59 58 7 91-148 94-172 28-4-9-6-17-7-26l51-5c1 24 16 35 40 36 23 0 39-12 38-36-1-31-31-36-65-34v-40c32 2 59-3 59-33 0-20-13-33-34-33s-33 13-35 32l-50-3c6-44 37-68 86-68 50 0 83 20 83 66 0 35-22 52-53 58" id="cU"/><path fill="#c92d39" d="M88-194c31-1 46 15 58 34l-1-101h50l1 261h-48c-2-10 0-23-3-31C134-8 116 4 84 4 32 4 16-41 15-95c0-56 19-97 73-99zm17 164c33 0 40-30 41-66 1-37-9-64-41-64s-38 30-39 65c0 43 13 65 39 65" id="cV"/><path fill="#c92d39" d="M24 0v-54h51V0H24" id="cW"/><g id="V"><use transform="matrix(0.06172839506172839,0,0,0.06172839506172839,0,0)" xlink:href="#cU"/><use transform="matrix(0.06172839506172839,0,0,0.06172839506172839,12.345679012345679,0)" xlink:href="#cV"/><use transform="matrix(0.06172839506172839,0,0,0.06172839506172839,25.864197530864196,0)" xlink:href="#cW"/><path fill="#c92d39" d="M-1.1 1.2H39.3V3.5H-1.1z"/></g><path fill="#c92d39" d="M169-182c-1-43-94-46-97-3 18 66 151 10 154 114 3 95-165 93-204 36-6-8-10-19-12-30l50-8c3 46 112 56 116 5-17-69-150-10-154-114-4-87 153-88 188-35 5 8 8 18 10 28" id="cX"/><path fill="#c92d39" d="M185-48c-13 30-37 53-82 52C43 2 14-33 14-96s30-98 90-98c62 0 83 45 84 108H66c0 31 8 55 39 56 18 0 30-7 34-22zm-45-69c5-46-57-63-70-21-2 6-4 13-4 21h74" id="cY"/><path fill="#c92d39" d="M135-194c87-1 58 113 63 194h-50c-7-57 23-157-34-157-59 0-34 97-39 157H25l-1-190h47c2 12-1 28 3 38 12-26 28-41 61-42" id="cZ"/><g id="W"><use transform="matrix(0.06172839506172839,0,0,0.06172839506172839,0,0)" xlink:href="#cX"/><use transform="matrix(0.06172839506172839,0,0,0.06172839506172839,14.814814814814813,0)" xlink:href="#cY"/><use transform="matrix(0.06172839506172839,0,0,0.06172839506172839,27.160493827160494,0)" xlink:href="#cZ"/><use transform="matrix(0.06172839506172839,0,0,0.06172839506172839,40.67901234567901,0)" xlink:href="#cV"/><path fill="#c92d39" d="M-1.1 1.2h62.58V3.5h-62.6z"/></g><path fill="#c92d39" d="M24 0v-248h195v40H76v63h132v40H76v65h150V0H24" id="da"/><path fill="#c92d39" d="M240-174c0 40-23 61-54 70L253 0h-59l-57-94H76V0H24v-248c93 4 217-23 216 74zM76-134c48-2 112 12 112-38 0-48-66-32-112-35v73" id="db"/><path fill="#c92d39" d="M140-251c80 0 125 45 125 126S219 4 139 4C58 4 15-44 15-125s44-126 125-126zm-1 214c52 0 73-35 73-88 0-50-21-86-72-86-52 0-73 35-73 86s22 88 72 88" id="dc"/><g id="X"><use transform="matrix(0.06172839506172839,0,0,0.06172839506172839,0,0)" xlink:href="#da"/><use transform="matrix(0.06172839506172839,0,0,0.06172839506172839,14.814814814814813,0)" xlink:href="#db"/><use transform="matrix(0.06172839506172839,0,0,0.06172839506172839,30.80246913580247,0)" xlink:href="#db"/><use transform="matrix(0.06172839506172839,0,0,0.06172839506172839,46.79012345679012,0)" xlink:href="#dc"/><use transform="matrix(0.06172839506172839,0,0,0.06172839506172839,64.07407407407408,0)" xlink:href="#db"/><path fill="#c92d39" d="M-1.1 1.2h88.45V3.5H-1.1z"/></g><path fill="#c92d39" d="M135-150c-39-12-60 13-60 57V0H25l-1-190h47c2 13-1 29 3 40 6-28 27-53 61-41v41" id="dd"/><path fill="#c92d39" d="M137-138c1-29-70-34-71-4 15 46 118 7 119 86 1 83-164 76-172 9l43-7c4 19 20 25 44 25 33 8 57-30 24-41C81-84 22-81 20-136c-2-80 154-74 161-7" id="de"/><path fill="#c92d39" d="M135-194c53 0 70 44 70 98 0 56-19 98-73 100-31 1-45-17-59-34 3 33 2 69 2 105H25l-1-265h48c2 10 0 23 3 31 11-24 29-35 60-35zM114-30c33 0 39-31 40-66 0-38-9-64-40-64-56 0-55 130 0 130" id="df"/><path fill="#c92d39" d="M110-194c64 0 96 36 96 99 0 64-35 99-97 99-61 0-95-36-95-99 0-62 34-99 96-99zm-1 164c35 0 45-28 45-65 0-40-10-65-43-65-34 0-45 26-45 65 0 36 10 65 43 65" id="dg"/><path fill="#c92d39" d="M80-75H40l-6-173h52zM34 0v-47h51V0H34" id="dh"/><g id="Y"><use transform="matrix(0.06172839506172839,0,0,0.06172839506172839,0,0)" xlink:href="#dd"/><use transform="matrix(0.06172839506172839,0,0,0.06172839506172839,8.641975308641975,0)" xlink:href="#cY"/><use transform="matrix(0.06172839506172839,0,0,0.06172839506172839,20.98765432098765,0)" xlink:href="#de"/><use transform="matrix(0.06172839506172839,0,0,0.06172839506172839,33.33333333333333,0)" xlink:href="#df"/><use transform="matrix(0.06172839506172839,0,0,0.06172839506172839,46.85185185185185,0)" xlink:href="#dg"/><use transform="matrix(0.06172839506172839,0,0,0.06172839506172839,60.37037037037037,0)" xlink:href="#cZ"/><use transform="matrix(0.06172839506172839,0,0,0.06172839506172839,73.88888888888889,0)" xlink:href="#de"/><use transform="matrix(0.06172839506172839,0,0,0.06172839506172839,86.23456790123457,0)" xlink:href="#cY"/><use transform="matrix(0.06172839506172839,0,0,0.06172839506172839,98.58024691358025,0)" xlink:href="#dh"/><path fill="#c92d39" d="M-1.1 1.2h108.14V3.5H-1.1z"/></g><path fill="#333" d="M123-170H98l11-78h32zm-65 0H33l11-78h32" id="di"/><path fill="#333" d="M67-162c32-53 139-36 121 50C175-51 163 2 97 4 68 4 52-11 42-31 38 6 28 39 22 75H-9l50-265h29c-1 10 0 20-3 28zm89 36c0-26-10-43-35-43-54 0-67 50-69 103-1 29 14 45 42 46 53 0 62-58 62-106" id="dj"/><path fill="#333" d="M6 0l50-261h32L37 0H6" id="dk"/><path fill="#333" d="M111-194c62-3 86 47 72 106H45c-7 38 6 69 45 68 27-1 43-14 53-32l24 11C152-15 129 4 87 4 38 3 12-23 12-71c0-70 32-119 99-123zm44 81c14-66-71-72-95-28-4 8-8 17-11 28h106" id="dl"/><path fill="#333" d="M165-48c-4 18 1 34 23 27l-3 20c-29 8-62 0-52-35h-2C116-14 99 4 63 4 30 4 8-16 8-49c0-68 71-67 138-67 10-26 0-56-31-54-26 1-42 9-47 31l-32-5c8-67 160-71 144 15-5 28-9 54-15 81zM42-50c3 52 80 24 89-6 7-12 7-24 11-38-47 1-103-4-100 44" id="dm"/><path fill="#333" d="M55-144c13 50 104 24 104 88C159 21 15 23 1-39l26-10c6 40 102 42 102-4-13-50-104-23-104-87 0-71 143-71 148-8l-29 4c-5-35-85-37-89 0" id="dn"/><g id="Z"><use transform="matrix(0.06172839506172839,0,0,0.06172839506172839,0,0)" xlink:href="#di"/><use transform="matrix(0.06172839506172839,0,0,0.06172839506172839,7.8395061728395055,0)" xlink:href="#dj"/><use transform="matrix(0.06172839506172839,0,0,0.06172839506172839,20.185185185185183,0)" xlink:href="#dk"/><use transform="matrix(0.06172839506172839,0,0,0.06172839506172839,25.061728395061728,0)" xlink:href="#dl"/><use transform="matrix(0.06172839506172839,0,0,0.06172839506172839,37.407407407407405,0)" xlink:href="#dm"/><use transform="matrix(0.06172839506172839,0,0,0.06172839506172839,49.75308641975308,0)" xlink:href="#dn"/><use transform="matrix(0.06172839506172839,0,0,0.06172839506172839,60.86419753086419,0)" xlink:href="#dl"/></g><path fill="#333" d="M30-147c31-64 166-65 159 27C183-49 158 1 86 4 9 8 1-88 30-147zM88-20c53 0 68-48 68-100 0-31-11-51-44-50-52 1-68 46-68 97 0 32 13 53 44 53" id="do"/><path fill="#333" d="M103-194c29 0 47 14 56 36 2-11 5-23 8-32h30L160-5C157 61 82 97 21 62 9 55 4 45 1 30l28-7c7 42 83 31 92-3 4-16 9-38 13-55-13 20-29 36-62 36-40 0-60-25-60-64 0-71 23-131 91-131zm4 24c-53 0-58 54-61 104-2 27 10 44 36 44 49 0 65-50 67-102 1-29-15-46-42-46" id="dp"/><path fill="#333" d="M50-231l6-30h32l-6 30H50zM6 0l37-190h31L37 0H6" id="dq"/><path fill="#333" d="M67-158c22-48 132-52 116 29L158 0h-32l25-140c3-38-53-32-70-12C52-117 51-52 38 0H6l36-190h30" id="dr"/><path fill="#333" d="M58-70H32l30-178h35zM14 0l7-35h34L48 0H14" id="ds"/><g id="aa"><use transform="matrix(0.06172839506172839,0,0,0.06172839506172839,0,0)" xlink:href="#dk"/><use transform="matrix(0.06172839506172839,0,0,0.06172839506172839,4.876543209876543,0)" xlink:href="#do"/><use transform="matrix(0.06172839506172839,0,0,0.06172839506172839,17.22222222222222,0)" xlink:href="#dp"/><use transform="matrix(0.06172839506172839,0,0,0.06172839506172839,29.5679012345679,0)" xlink:href="#dq"/><use transform="matrix(0.06172839506172839,0,0,0.06172839506172839,34.44444444444444,0)" xlink:href="#dr"/><use transform="matrix(0.06172839506172839,0,0,0.06172839506172839,46.79012345679012,0)" xlink:href="#ds"/><use transform="matrix(0.06172839506172839,0,0,0.06172839506172839,52.96296296296296,0)" xlink:href="#di"/></g><path fill="#333" d="M139-81c0-46-55-55-73-27H18l9-140h149v37H72l-4 63c44-38 133-4 122 66C201 21 21 35 11-62l49-4c5 18 15 30 39 30 26 0 40-18 40-45" id="dt"/><g id="ab"><use transform="matrix(0.06172839506172839,0,0,0.06172839506172839,0,0)" xlink:href="#dt"/><use transform="matrix(0.06172839506172839,0,0,0.06172839506172839,12.345679012345679,0)" xlink:href="#aG"/><path fill="#333" d="M-1.1 1.2h26.9V3.5H-1.1z"/></g><g id="ac"><use transform="matrix(0.06172839506172839,0,0,0.06172839506172839,0,0)" xlink:href="#aH"/><use transform="matrix(0.06172839506172839,0,0,0.06172839506172839,15.987654320987653,0)" xlink:href="#aI"/><use transform="matrix(0.06172839506172839,0,0,0.06172839506172839,24.629629629629626,0)" xlink:href="#aJ"/><use transform="matrix(0.06172839506172839,0,0,0.06172839506172839,36.9753086419753,0)" xlink:href="#aK"/><use transform="matrix(0.06172839506172839,0,0,0.06172839506172839,49.32098765432098,0)" xlink:href="#aL"/><use transform="matrix(0.06172839506172839,0,0,0.06172839506172839,56.66666666666666,0)" xlink:href="#aJ"/><path fill="#333" d="M-1.1 1.2h77.4V3.5H-1.1z"/></g><g id="ad"><use transform="matrix(0.06172839506172839,0,0,0.06172839506172839,0,0)" xlink:href="#aP"/><use transform="matrix(0.06172839506172839,0,0,0.06172839506172839,13.518518518518517,0)" xlink:href="#aJ"/><use transform="matrix(0.06172839506172839,0,0,0.06172839506172839,25.864197530864196,0)" xlink:href="#bH"/><path fill="#333" d="M-1.1 1.2h51.53V3.5H-1.1z"/></g><g id="ae"><use transform="matrix(0.06172839506172839,0,0,0.06172839506172839,0,0)" xlink:href="#aM"/><use transform="matrix(0.06172839506172839,0,0,0.06172839506172839,12.345679012345679,0)" xlink:href="#aJ"/><use transform="matrix(0.06172839506172839,0,0,0.06172839506172839,24.691358024691358,0)" xlink:href="#aM"/><use transform="matrix(0.06172839506172839,0,0,0.06172839506172839,37.03703703703704,0)" xlink:href="#aM"/><use transform="matrix(0.06172839506172839,0,0,0.06172839506172839,49.382716049382715,0)" xlink:href="#aN"/><use transform="matrix(0.06172839506172839,0,0,0.06172839506172839,55.55555555555556,0)" xlink:href="#aO"/><use transform="matrix(0.06172839506172839,0,0,0.06172839506172839,69.07407407407408,0)" xlink:href="#aP"/><path fill="#333" d="M-1.1 1.2h90.98V3.5h-91z"/></g><g id="af"><use transform="matrix(0.06172839506172839,0,0,0.06172839506172839,0,0)" xlink:href="#aL"/><use transform="matrix(0.06172839506172839,0,0,0.06172839506172839,7.345679012345679,0)" xlink:href="#aO"/><use transform="matrix(0.06172839506172839,0,0,0.06172839506172839,20.864197530864196,0)" xlink:href="#aQ"/><use transform="matrix(0.06172839506172839,0,0,0.06172839506172839,33.20987654320987,0)" xlink:href="#aJ"/><use transform="matrix(0.06172839506172839,0,0,0.06172839506172839,45.55555555555555,0)" xlink:href="#aP"/><path fill="#333" d="M-1.1 1.2h61.3V3.5H-1.1z"/></g><path fill="#333" d="M84 4C-5 8 30-112 23-190h32v120c0 31 7 50 39 49 72-2 45-101 50-169h31l1 190h-30c-1-10 1-25-2-33-11 22-28 36-60 37" id="du"/><g id="ag"><use transform="matrix(0.06172839506172839,0,0,0.06172839506172839,0,0)" xlink:href="#du"/><use transform="matrix(0.06172839506172839,0,0,0.06172839506172839,12.345679012345679,0)" xlink:href="#aq"/><use transform="matrix(0.06172839506172839,0,0,0.06172839506172839,23.45679012345679,0)" xlink:href="#ar"/><use transform="matrix(0.06172839506172839,0,0,0.06172839506172839,35.80246913580247,0)" xlink:href="#as"/></g><g id="ah"><use transform="matrix(0.049382716049382706,0,0,0.049382716049382706,0,0)" xlink:href="#bI"/><use transform="matrix(0.049382716049382706,0,0,0.049382716049382706,9.87654320987654,0)" xlink:href="#aK"/><use transform="matrix(0.049382716049382706,0,0,0.049382716049382706,19.75308641975308,0)" xlink:href="#aG"/><path fill="#333" d="M-.9.95h31.42v1.87H-.88z"/></g><path fill="#333" d="M10-72l8-43h92l-9 43H10" id="dv"/><path fill="#333" d="M128 0L95-87 70-74 55 0H6l51-261h49L77-111l82-79h56l-83 74L180 0h-52" id="dw"/><path fill="#333" d="M212 0h-52l-8-156L82 0H30L17-190h46l2 145 66-145h53l8 145 60-145h47" id="dx"/><path fill="#333" d="M163-185c-5-40-82-31-84 8l-47-7c13-42 43-68 99-67 46 1 82 17 82 62 0 69-80 60-96 114H70c8-55 68-59 91-98 1-4 2-7 2-12zM54 0l9-47h51l-9 47H54" id="dy"/><g id="ai"><use transform="matrix(0.049382716049382706,0,0,0.049382716049382706,0,0)" xlink:href="#bE"/><use transform="matrix(0.049382716049382706,0,0,0.049382716049382706,4.93827160493827,0)" xlink:href="#co"/><use transform="matrix(0.049382716049382706,0,0,0.049382716049382706,14.814814814814811,0)" xlink:href="#dv"/><use transform="matrix(0.049382716049382706,0,0,0.049382716049382706,20.691358024691354,0)" xlink:href="#bB"/><use transform="matrix(0.049382716049382706,0,0,0.049382716049382706,25.629629629629626,0)" xlink:href="#bC"/><use transform="matrix(0.049382716049382706,0,0,0.049382716049382706,36.44444444444444,0)" xlink:href="#bD"/><use transform="matrix(0.049382716049382706,0,0,0.049382716049382706,47.25925925925925,0)" xlink:href="#bE"/><use transform="matrix(0.049382716049382706,0,0,0.049382716049382706,52.19753086419752,0)" xlink:href="#bF"/><use transform="matrix(0.049382716049382706,0,0,0.049382716049382706,63.01234567901234,0)" xlink:href="#dv"/><use transform="matrix(0.049382716049382706,0,0,0.049382716049382706,68.88888888888889,0)" xlink:href="#cp"/><use transform="matrix(0.049382716049382706,0,0,0.049382716049382706,74.76543209876543,0)" xlink:href="#bC"/><use transform="matrix(0.049382716049382706,0,0,0.049382716049382706,85.58024691358024,0)" xlink:href="#dw"/><use transform="matrix(0.049382716049382706,0,0,0.049382716049382706,95.45679012345678,0)" xlink:href="#ct"/><use transform="matrix(0.049382716049382706,0,0,0.049382716049382706,105.33333333333333,0)" xlink:href="#bF"/><use transform="matrix(0.049382716049382706,0,0,0.049382716049382706,116.14814814814815,0)" xlink:href="#dv"/><use transform="matrix(0.049382716049382706,0,0,0.049382716049382706,122.0246913580247,0)" xlink:href="#dw"/><use transform="matrix(0.049382716049382706,0,0,0.049382716049382706,131.9012345679012,0)" xlink:href="#bF"/><use transform="matrix(0.049382716049382706,0,0,0.049382716049382706,142.71604938271602,0)" xlink:href="#bC"/><use transform="matrix(0.049382716049382706,0,0,0.049382716049382706,153.53086419753083,0)" xlink:href="#dx"/><use transform="matrix(0.049382716049382706,0,0,0.049382716049382706,167.358024691358,0)" xlink:href="#bF"/><use transform="matrix(0.049382716049382706,0,0,0.049382716049382706,178.1728395061728,0)" xlink:href="#dy"/><path fill="#333" d="M-.9.95H189.9v1.87H-.9z"/><path fill="#333" d="M188.1.95h6.72v1.87h-6.72z"/></g><g id="aj"><use transform="matrix(0.049382716049382706,0,0,0.049382716049382706,0,0)" xlink:href="#aK"/><use transform="matrix(0.049382716049382706,0,0,0.049382716049382706,9.87654320987654,0)" xlink:href="#aP"/><use transform="matrix(0.049382716049382706,0,0,0.049382716049382706,20.691358024691354,0)" xlink:href="#cm"/><path fill="#333" d="M-.9.95h38.23v1.87H-.9z"/></g><g id="ak"><use transform="matrix(0.049382716049382706,0,0,0.049382716049382706,0,0)" xlink:href="#bB"/><use transform="matrix(0.049382716049382706,0,0,0.049382716049382706,4.93827160493827,0)" xlink:href="#cn"/><use transform="matrix(0.049382716049382706,0,0,0.049382716049382706,14.814814814814811,0)" xlink:href="#co"/><use transform="matrix(0.049382716049382706,0,0,0.049382716049382706,24.691358024691354,0)" xlink:href="#cp"/><use transform="matrix(0.049382716049382706,0,0,0.049382716049382706,30.567901234567895,0)" xlink:href="#cq"/><use transform="matrix(0.049382716049382706,0,0,0.049382716049382706,41.38271604938271,0)" xlink:href="#bC"/><use transform="matrix(0.049382716049382706,0,0,0.049382716049382706,52.19753086419752,0)" xlink:href="#bD"/><use transform="matrix(0.049382716049382706,0,0,0.049382716049382706,63.01234567901232,0)" xlink:href="#bE"/><use transform="matrix(0.049382716049382706,0,0,0.049382716049382706,67.95061728395059,0)" xlink:href="#bF"/><use transform="matrix(0.049382716049382706,0,0,0.049382716049382706,78.7654320987654,0)" xlink:href="#cr"/><use transform="matrix(0.049382716049382706,0,0,0.049382716049382706,89.23456790123453,0)" xlink:href="#bE"/><use transform="matrix(0.049382716049382706,0,0,0.049382716049382706,94.17283950617279,0)" xlink:href="#cs"/><use transform="matrix(0.049382716049382706,0,0,0.049382716049382706,109.97530864197526,0)" xlink:href="#ct"/><path fill="#333" d="M-.9.95h121.64v1.87H-.9z"/></g><path fill="#333" d="M169-182c-1-43-94-46-97-3 18 66 151 10 154 114 3 95-165 93-204 36-6-8-10-19-12-30l50-8c3 46 112 56 116 5-17-69-150-10-154-114-4-87 153-88 188-35 5 8 8 18 10 28" id="dz"/><g id="al"><use transform="matrix(0.049382716049382706,0,0,0.049382716049382706,0,0)" xlink:href="#dz"/><use transform="matrix(0.049382716049382706,0,0,0.049382716049382706,11.85185185185185,0)" xlink:href="#bA"/><use transform="matrix(0.049382716049382706,0,0,0.049382716049382706,21.728395061728392,0)" xlink:href="#aP"/><use transform="matrix(0.049382716049382706,0,0,0.049382716049382706,32.5432098765432,0)" xlink:href="#bL"/><path fill="#333" d="M-.9.95h49.15v1.87H-.9z"/></g><g id="am"><use transform="matrix(0.049382716049382706,0,0,0.049382716049382706,0,0)" xlink:href="#bM"/><use transform="matrix(0.049382716049382706,0,0,0.049382716049382706,10.814814814814813,0)" xlink:href="#aM"/><use transform="matrix(0.049382716049382706,0,0,0.049382716049382706,20.691358024691354,0)" xlink:href="#aJ"/><use transform="matrix(0.049382716049382706,0,0,0.049382716049382706,30.567901234567895,0)" xlink:href="#aI"/><path fill="#333" d="M-.9.95h44.2v1.87H-.9z"/></g><g id="an"><use transform="matrix(0.049382716049382706,0,0,0.049382716049382706,0,0)" xlink:href="#bN"/><use transform="matrix(0.049382716049382706,0,0,0.049382716049382706,10.814814814814813,0)" xlink:href="#aJ"/><use transform="matrix(0.049382716049382706,0,0,0.049382716049382706,20.691358024691354,0)" xlink:href="#aI"/><use transform="matrix(0.049382716049382706,0,0,0.049382716049382706,27.604938271604933,0)" xlink:href="#bO"/><use transform="matrix(0.049382716049382706,0,0,0.049382716049382706,43.4074074074074,0)" xlink:href="#aN"/><use transform="matrix(0.049382716049382706,0,0,0.049382716049382706,48.34567901234567,0)" xlink:href="#aM"/><use transform="matrix(0.049382716049382706,0,0,0.049382716049382706,58.222222222222214,0)" xlink:href="#aM"/><use transform="matrix(0.049382716049382706,0,0,0.049382716049382706,68.09876543209876,0)" xlink:href="#aN"/><use transform="matrix(0.049382716049382706,0,0,0.049382716049382706,73.03703703703702,0)" xlink:href="#aO"/><use transform="matrix(0.049382716049382706,0,0,0.049382716049382706,83.85185185185183,0)" xlink:href="#aP"/><use transform="matrix(0.049382716049382706,0,0,0.049382716049382706,94.66666666666664,0)" xlink:href="#aM"/><path fill="#333" d="M-.9.95h106.33v1.87H-.9z"/></g><g id="ao"><use transform="matrix(0.049382716049382706,0,0,0.049382716049382706,0,0)" xlink:href="#bP"/><path fill="#333" d="M-.9.95h7.66v1.87H-.9z"/><use transform="matrix(0.049382716049382706,0,0,0.049382716049382706,5.876543209876542,0)" xlink:href="#bQ"/><use transform="matrix(0.049382716049382706,0,0,0.049382716049382706,10.814814814814813,0)" xlink:href="#bR"/><use transform="matrix(0.049382716049382706,0,0,0.049382716049382706,20.691358024691354,0)" xlink:href="#bS"/><use transform="matrix(0.049382716049382706,0,0,0.049382716049382706,26.567901234567895,0)" xlink:href="#bT"/><use transform="matrix(0.049382716049382706,0,0,0.049382716049382706,37.38271604938271,0)" xlink:href="#bR"/><use transform="matrix(0.049382716049382706,0,0,0.049382716049382706,47.25925925925925,0)" xlink:href="#bU"/><use transform="matrix(0.049382716049382706,0,0,0.049382716049382706,57.13580246913579,0)" xlink:href="#bV"/><use transform="matrix(0.049382716049382706,0,0,0.049382716049382706,64.04938271604938,0)" xlink:href="#bS"/><use transform="matrix(0.049382716049382706,0,0,0.049382716049382706,69.92592592592592,0)" xlink:href="#bW"/><use transform="matrix(0.049382716049382706,0,0,0.049382716049382706,80.74074074074073,0)" xlink:href="#bX"/><use transform="matrix(0.049382716049382706,0,0,0.049382716049382706,85.679012345679,0)" xlink:href="#bY"/><use transform="matrix(0.049382716049382706,0,0,0.049382716049382706,96.49382716049381,0)" xlink:href="#bZ"/><use transform="matrix(0.049382716049382706,0,0,0.049382716049382706,106.37037037037035,0)" xlink:href="#ca"/><use transform="matrix(0.049382716049382706,0,0,0.049382716049382706,116.2469135802469,0)" xlink:href="#bU"/><use transform="matrix(0.049382716049382706,0,0,0.049382716049382706,126.12345679012343,0)" xlink:href="#cb"/><use transform="matrix(0.049382716049382706,0,0,0.049382716049382706,136.93827160493825,0)" xlink:href="#cc"/><path fill="#b2b2b2" d="M5 .95h148.58v1.87H4.98z"/></g></defs></g></svg>